<svg width="202" height="113" viewBox="0 0 202 113" fill="none" xmlns="http://www.w3.org/2000/svg">
<path d="M92.7436 0.0471477C95.612 0.315328 95.612 0.315328 98.8185 1.91275C99.693 2.54239 100.556 3.16037 101.442 3.81333C102.655 4.17479 103.856 4.53625 105.092 4.89771C106.199 5.30581 107.307 5.72557 108.438 6.14533C109.592 7.68445 110.747 9.22357 111.936 10.8093C116.647 11.4156 116.647 11.4156 121.999 11.3107C133.903 11.7188 133.903 11.7188 139.197 14.5988C143.663 17.9802 146.753 20.9652 149.248 25.9673C149.691 30.7712 149.691 30.7712 149.248 36.4613C146.776 41.1253 146.776 41.1253 143.418 45.7893C142.135 47.7249 140.841 49.6721 139.559 51.6193C138.008 53.928 138.008 53.928 136.422 56.2833C137.122 55.8169 137.81 55.3505 138.532 54.8725C147.091 49.4039 154.856 46.2674 165.024 45.4628C172.964 45.253 179.342 45.6727 186.56 49.2873C187.435 49.7071 188.297 50.1268 189.195 50.5699C191.807 51.9808 191.807 51.9808 195.888 55.1173C196.11 58.9068 196.11 58.9068 195.888 62.1133C197.824 62.5447 199.771 62.9295 201.718 63.2793C201.718 65.2032 201.718 67.1271 201.718 69.1093C199.036 72.3974 199.036 72.3975 195.527 75.7322C194.384 76.8516 193.23 77.9593 192.04 79.1019C188.892 81.9353 188.892 81.9353 185.394 84.2673C182.98 84.5472 180.543 84.7337 178.107 84.8503C173.431 85.1069 169.933 85.5266 165.432 86.9608C164.324 87.229 163.217 87.4855 162.074 87.7653C160.92 86.2262 159.765 84.6871 158.576 83.1013C149.073 79.4867 138.451 77.3763 128.26 77.7727C121.73 79.0087 117.171 82.6699 111.936 86.5993C109.476 88.3367 107.004 90.0507 104.509 91.753C102.83 92.919 101.15 94.0967 99.4715 95.2744C97.4426 96.6969 95.3671 98.0611 93.28 99.4253C92.5104 99.4253 91.7409 99.4253 90.948 99.4253C88.2662 94.4232 85.7476 89.3744 83.2874 84.2557C79.7894 77.2597 76.4663 72.584 69.96 67.9433C66.8934 66.2293 66.8934 66.2293 63.7685 64.9467C56.1895 61.3554 49.8348 56.5748 43.1537 51.561C37.1371 47.1186 31.1439 43.6789 24.416 40.3907C15.4495 35.8667 10.1908 30.7712 4.664 22.4693C3.68456 21.1401 2.69346 19.8225 1.67904 18.4583C2.77996e-06 15.4733 0 15.4733 0 10.8093C1.32924 10.856 2.64682 10.9026 4.01104 10.9492C6.07486 10.8793 6.07486 10.8793 8.162 10.8093C9.14144 7.39295 9.14144 7.39295 9.328 3.81333C15.7177 1.67955 22.3639 2.36749 28.9401 3.23033C40.227 7.27635 49.7882 14.1208 58.0318 22.7608C62.3577 28.0778 65.6575 33.8845 68.794 39.9593C68.5491 38.9682 68.2926 37.9888 68.0361 36.9627C64.3632 22.0262 64.3632 22.0262 65.296 15.4733C67.558 12.4767 67.558 12.4767 71.126 9.64333C72.0005 8.93207 72.875 8.23247 73.7728 7.50955C80.5473 2.12263 83.7421 -0.0344723 92.7436 0.0471477Z" fill="#A1B5EF"/>
<path d="M17.4882 36.4609C29.6962 41.9528 40.2952 48.4474 51.104 56.2713C56.3743 60.0608 61.4697 63.3372 67.4047 66.054C72.5584 68.4793 76.1264 70.8929 79.671 75.382C84.0552 82.2731 87.6581 89.6305 90.9462 97.0929C90.9462 97.8625 90.9462 98.6321 90.9462 99.4249C99.2948 94.2246 107.445 88.7794 115.491 83.1243C116.633 82.343 117.764 81.5735 118.93 80.7689C119.898 80.1043 120.866 79.428 121.869 78.7401C126.439 76.4198 130.485 76.7346 135.522 76.8512C143.381 77.5974 151.182 79.1365 158.574 81.9349C159.729 83.4741 160.883 85.0132 162.072 86.5989C164.824 85.9227 167.529 85.1181 170.234 84.2669C175.656 83.649 181.09 83.1942 186.558 83.1009C186.943 83.4857 187.328 83.8705 187.724 84.2669C188.785 83.9055 189.835 83.544 190.931 83.1709C194.72 81.9349 194.72 81.9349 200.55 81.9349C200.935 83.4741 201.32 85.0132 201.716 86.5989C200.177 87.3685 198.638 88.1381 197.052 88.9309C196.667 90.0853 196.283 91.2396 195.886 92.4289C183.398 101.92 169.826 108.298 154.202 110.549C130.112 113.16 100.379 114.07 77.3157 105.407C74.8321 104.171 74.8321 104.171 72.2902 102.923C71.3691 102.515 70.4479 102.118 69.5035 101.699C58.5547 96.6965 49.2151 89.3157 40.8082 80.7689C39.2225 79.3464 37.6134 77.9356 36.0043 76.548C33.2059 74.1344 30.5941 71.7208 27.9822 69.1089C27.9822 68.3394 27.9822 67.5698 27.9822 66.7769C26.4431 66.0074 24.904 65.2378 23.3182 64.4449C20.5665 61.8331 20.5665 61.8331 17.7797 58.7665C16.8469 57.7521 15.9141 56.7493 14.958 55.7116C13.8969 54.2658 13.8969 54.2658 12.8242 52.7849C12.8242 51.2458 12.8242 49.7067 12.8242 48.1209C17.6398 48.1209 20.6597 49.1004 24.8457 51.479C27.9822 53.9509 27.9822 53.9509 30.3142 57.4489C33.9055 57.7404 33.9055 57.7404 37.3102 57.4489C33.0427 53.0998 28.7751 48.9255 24.1228 44.9844C19.8202 41.1249 19.8202 41.1249 17.4882 36.4609Z" fill="#385197"/>
<path d="M103.773 36.4609C106.105 41.1249 106.105 41.1249 106.105 46.9549C107.259 46.9549 108.414 46.9549 109.603 46.9549C109.58 48.7156 109.556 50.4646 109.533 52.2719C109.556 53.9859 109.58 55.6883 109.603 57.4489C111.142 57.0642 112.681 56.6794 114.267 56.2829C115.223 53.3563 115.223 53.3563 115.433 50.4529C116.004 51.6073 116.004 51.6073 116.599 52.7849C117.753 53.1697 118.908 53.5545 120.097 53.9509C118.943 54.7205 117.788 55.4901 116.599 56.2829C116.028 58.0086 116.028 58.0086 115.433 59.7809C116.203 59.7809 116.972 59.7809 117.765 59.7809C117.369 62.7892 116.797 65.2145 115.433 67.9429C118.919 67.8263 118.919 67.8263 122.429 66.7769C123.572 63.8619 123.572 63.8619 123.595 60.9469C124.365 62.4861 125.134 64.0252 125.927 65.6109C130.719 63.5238 130.719 63.5238 134.089 59.7809C137.226 60.4339 137.226 60.4339 139.919 62.1129C139.919 63.6521 139.919 65.1912 139.919 66.7769C140.689 66.7769 141.458 66.7769 142.251 66.7769C142.251 67.5465 142.251 68.3161 142.251 69.1089C146.262 70.4732 149.655 71.4409 153.911 71.4409C154.681 71.8257 155.45 72.2105 156.243 72.6069C154.704 73.7613 153.165 74.9156 151.579 76.1049C151.579 76.8745 151.579 77.6441 151.579 78.4369C153.305 79.0083 153.305 79.0083 155.077 79.6029C154.156 79.5213 153.235 79.4397 152.29 79.3464C148.174 78.9966 144.047 78.7168 139.919 78.4369C138.625 78.3203 137.33 78.1921 135.99 78.0755C130.778 77.7723 126.452 77.7024 121.613 79.8128C118.243 81.9116 115.107 84.2086 111.935 86.5989C109.475 88.3363 106.991 90.0503 104.508 91.7643C102.817 92.9187 101.138 94.0963 99.4705 95.274C97.43 96.6965 95.3545 98.0724 93.279 99.4249C92.5094 99.4249 91.7399 99.4249 90.947 99.4249C89.5944 97.2678 89.5944 97.2678 88.1136 94.2712C87.5773 93.1985 87.0292 92.1141 86.4696 91.0064C85.3385 88.7211 84.2075 86.4357 83.0765 84.1503C80.0566 78.1921 77.3048 73.668 72.291 69.1089C72.291 68.3394 72.291 67.5698 72.291 66.7769C73.4453 66.3922 74.5997 66.0074 75.789 65.6109C77.3281 65.9957 78.8672 66.3805 80.453 66.7769C80.8378 67.5465 81.2226 68.3161 81.619 69.1089C82.3886 68.3394 83.1581 67.5698 83.951 66.7769C85.8749 66.7769 87.7988 66.7769 89.781 66.7769C89.0464 64.1534 89.0464 64.1534 87.449 60.9469C87.0176 58.2302 86.6328 55.5134 86.283 52.7849C85.8982 51.2458 85.5134 49.7067 85.117 48.1209C83.9627 49.8466 83.9627 49.8466 82.785 51.6189C82.0154 51.2342 81.2459 50.8494 80.453 50.4529C80.0682 51.2225 79.6834 51.9921 79.287 52.7849C77.7479 52.4002 76.2088 52.0154 74.623 51.6189C72.361 46.302 72.361 46.302 71.125 41.1249C72.2793 41.1249 73.4337 41.1249 74.623 41.1249C74.623 40.3554 74.623 39.5858 74.623 38.7929C82.3536 37.3821 82.3536 37.3821 86.283 38.7929C87.962 42.4075 88.5334 45.6723 89.0814 49.6134C89.3146 50.6628 89.5478 51.7006 89.781 52.7849C90.9353 53.1697 92.0897 53.5545 93.279 53.9509C93.0225 51.2225 92.6377 48.4941 92.183 45.7889C91.7166 41.2182 91.7166 41.2182 92.113 37.6269C97.873 37.3354 97.873 37.3354 101.184 38.1866C102.036 38.3848 102.887 38.5831 103.773 38.7929C103.773 38.0234 103.773 37.2538 103.773 36.4609Z" fill="#B9C4F1"/>
<path d="M125.927 79.6035C129.88 79.8367 133.67 80.2332 137.587 80.7695C145.12 81.8656 145.12 81.8656 152.606 81.131C153.422 81.0144 154.238 80.8978 155.077 80.7695C157.701 82.81 157.701 82.81 159.741 85.4335C160.324 87.1709 160.324 87.1709 160.907 88.9315C164.954 89.1297 168.825 89.1414 172.859 89.0015C184.332 88.64 184.332 88.64 189.09 89.9459C189.801 90.3774 190.501 90.8204 191.223 91.2635C191.223 92.0331 191.223 92.8026 191.223 93.5955C187.271 94.8781 183.983 94.7265 179.785 94.6216C178.176 94.6682 176.555 94.7149 174.899 94.7615C174.899 95.9159 174.899 97.0702 174.899 98.2595C176.054 98.6443 177.208 99.0291 178.397 99.4255C178.397 100.195 178.397 100.965 178.397 101.758C173.255 102.784 169.035 102.924 163.822 102.271C158.75 101.443 158.75 101.443 154.751 102.889C146.694 104.649 138.8 104.241 130.591 104.09C127.292 104.031 123.98 103.985 120.68 103.95C119.223 103.915 117.765 103.891 116.273 103.856C114.699 103.973 114.699 103.973 113.101 104.09C113.101 104.859 113.101 105.629 113.101 106.422C116.238 106.526 119.375 106.503 122.499 106.422C125.589 106.34 128.679 106.305 131.757 106.422C131.373 107.191 130.988 107.961 130.591 108.754C126.849 109.057 123.257 109.185 119.514 109.197C117.952 109.232 117.952 109.232 116.355 109.278C113.358 109.29 113.358 109.29 108.437 108.754C108.053 107.214 107.668 105.675 107.271 104.09C107.843 102.364 107.843 102.364 108.437 100.592C109.592 100.592 110.746 100.592 111.935 100.592C112.32 99.4372 112.705 98.2828 113.101 97.0935C111.562 97.0935 110.023 97.0935 108.437 97.0935C108.437 95.9392 108.437 94.7848 108.437 93.5955C112.005 93.4323 112.005 93.4323 116.599 93.8171C118.115 93.922 119.631 94.0386 121.194 94.1552C122.371 94.3534 123.549 94.5516 124.761 94.7615C124.761 95.5311 124.761 96.3006 124.761 97.0935C126.301 97.0935 127.84 97.0935 129.425 97.0935C129.425 95.9392 129.425 94.7848 129.425 93.5955C127.886 93.2107 126.347 92.826 124.761 92.4295C124.761 91.66 124.761 90.8904 124.761 90.0975C122.838 90.0975 120.914 90.0975 118.931 90.0975C118.931 88.1736 118.931 86.2497 118.931 84.2675C119.316 83.8827 119.701 83.498 120.097 83.1015C121.298 83.1482 122.499 83.1948 123.735 83.2531C125.403 83.1715 125.403 83.1715 127.093 83.1015C126.709 81.9472 126.324 80.7928 125.927 79.6035Z" fill="#37519B"/>
<path d="M39.6425 11.976C43.327 11.9177 43.327 11.9177 47.8045 13.142C60.5139 22.4467 67.0901 35.9607 73.3865 49.941C76.9545 58.1147 76.9545 58.1147 76.9545 62.114C73.8995 64.1545 73.8995 64.1545 69.9585 65.612C65.2012 65.612 62.3911 64.1662 58.0769 62.0441C51.6756 58.2896 45.1926 54.2435 39.6425 49.288C39.6425 48.1337 39.6425 46.9794 39.6425 45.79C38.8729 45.4053 38.1033 45.0205 37.3105 44.624C38.4648 43.8545 39.6191 43.0849 40.8085 42.292C41.578 40.7529 42.3476 39.2138 43.1405 37.628C43.91 38.0128 44.6796 38.3976 45.4725 38.794C45.0877 37.2549 44.7029 35.7158 44.3065 34.13C45.076 33.3605 45.8456 32.5909 46.6385 31.798C46.2537 30.6437 45.8689 29.4894 45.4725 28.3C44.3181 28.6848 43.1638 29.0696 41.9745 29.466C42.3592 31.0052 42.744 32.5443 43.1405 34.13C41.5314 32.6259 39.9806 31.0635 38.4765 29.466C38.4765 28.6965 38.4765 27.9269 38.4765 27.134C37.5437 26.6093 36.5992 26.073 35.6314 25.5366C34.1506 24.5922 34.1506 24.5922 32.6465 23.636C32.2617 22.0969 31.8769 20.5578 31.4805 18.972C33.4044 18.972 35.3283 18.972 37.3105 18.972C37.3105 18.2025 37.3105 17.4329 37.3105 16.64C38.08 16.64 38.8496 16.64 39.6425 16.64C39.6425 15.1009 39.6425 13.5618 39.6425 11.976Z" fill="#A1B6F3"/>
<path d="M30.3144 62.1133C31.8536 62.1133 33.3927 62.1133 34.9784 62.1133C34.9784 62.8828 34.9784 63.6524 34.9784 64.4453C37.3104 64.0605 39.6424 63.6641 41.9744 63.2793C45.8339 63.7224 45.8339 63.7224 48.9704 64.4453C49.3552 64.8301 49.74 65.2148 50.1364 65.6113C53.0398 65.5763 55.9315 65.5297 58.8348 65.4247C61.7964 65.6113 61.7964 65.6113 66.4604 67.9433C65.6909 68.7128 64.9213 69.4824 64.1284 70.2753C64.1284 71.0448 64.1284 71.8144 64.1284 72.6073C64.9446 73.4002 65.7608 74.193 66.612 75.0092C67.6847 76.1286 67.6847 76.1286 68.7924 77.2713C64.4899 79.4167 59.2662 78.379 54.5323 78.2507C53.4712 78.309 52.3985 78.379 51.3024 78.4373C51.3024 79.2068 51.3024 79.9764 51.3024 80.7693C52.8416 81.5388 54.3807 82.3084 55.9664 83.1013C56.736 83.8708 57.5056 84.6404 58.2984 85.4333C59.3129 85.6198 60.3156 85.8181 61.365 86.0163C62.2745 86.2028 63.184 86.4011 64.1284 86.5993C64.1284 87.3688 64.1284 88.1384 64.1284 88.9313C66.9735 90.2722 66.9735 90.2722 69.9584 90.0973C70.2499 86.5993 70.2499 86.5993 69.9584 83.1013C70.728 83.4861 71.4976 83.8708 72.2904 84.2673C73.2815 83.8359 74.261 83.4044 75.2754 82.9614C76.2199 82.6232 77.1527 82.2851 78.1204 81.9353C78.6918 83.661 78.6918 83.661 79.2864 85.4333C78.9017 86.2028 78.5169 86.9724 78.1204 87.7653C79.6596 88.1501 81.1987 88.5348 82.7844 88.9313C82.7844 89.7008 82.7844 90.4704 82.7844 91.2633C83.9388 91.6481 85.0931 92.0328 86.2824 92.4293C86.7605 94.015 87.2502 95.6008 87.7399 97.2449C88.4162 98.7257 89.0925 100.218 89.7804 101.757C94.3045 101.921 97.2079 100.929 101.301 99.0638C102.525 98.6674 102.525 98.6674 103.772 98.2593C104.344 100.568 104.344 100.568 104.938 102.923C104.554 104.078 104.169 105.232 103.772 106.421C100.298 106.888 100.298 106.888 95.9019 106.864C94.4678 106.864 93.0336 106.876 91.5528 106.888C87.4484 106.421 87.4484 106.421 84.0087 104.859C83.2159 104.218 82.4346 103.588 81.6184 102.923C81.6184 101.769 81.6184 100.615 81.6184 99.4253C82.388 99.4253 83.1576 99.4253 83.9504 99.4253C83.9504 98.6557 83.9504 97.8862 83.9504 97.0933C80.4058 96.5103 80.4058 96.5103 76.9544 97.0933C77.5258 99.402 77.5258 99.402 78.1204 101.757C70.6697 99.6468 67.2766 97.9095 61.7964 92.4293C59.103 91.3099 59.103 91.3099 56.188 90.4587C54.5789 89.9574 52.9582 89.456 51.3024 88.9313C51.3024 88.1617 51.3024 87.3922 51.3024 86.5993C50.5329 86.5993 49.7633 86.5993 48.9704 86.5993C48.9704 84.6754 48.9704 82.7515 48.9704 80.7693C46.242 79.7782 46.242 79.7782 43.1404 79.6033C41.9861 79.2185 40.8318 78.8337 39.6424 78.4373C39.2577 76.8982 38.8729 75.359 38.4764 73.7733C37.3221 73.7733 36.1678 73.7733 34.9784 73.7733C33.8124 70.2753 33.8124 70.2753 33.8124 65.6113C32.2733 65.2265 30.7342 64.8417 29.1484 64.4453C29.5332 63.6757 29.918 62.9062 30.3144 62.1133Z" fill="#37519B"/>
<path d="M94.445 59.7812C95.9841 59.7812 97.5233 59.7812 99.109 59.7812C100.053 62.0433 100.053 62.0433 100.275 65.6113C99.9602 67.4885 99.6454 69.3658 99.3306 71.3013C99.214 73.68 99.214 73.68 99.109 76.1053C102.654 76.7699 102.654 76.7699 106.105 74.9393C106.105 73.4001 106.105 71.861 106.105 70.2753C106.875 70.2753 107.644 70.2753 108.437 70.2753C108.822 69.1209 109.207 67.9666 109.603 66.7773C110.373 67.162 111.142 67.5468 111.935 67.9433C111.935 69.0976 111.935 70.2519 111.935 71.4413C111.165 71.4413 110.396 71.4413 109.603 71.4413C108.833 74.3329 108.833 74.3329 108.437 77.2713C109.591 76.5017 110.746 75.7321 111.935 74.9393C112.705 74.9393 113.474 74.9393 114.267 74.9393C114.267 75.7088 114.267 76.4784 114.267 77.2713C115.806 77.656 117.345 78.0408 118.931 78.4373C118.931 79.5916 118.931 80.7459 118.931 81.9353C116.016 84.209 113.124 86.2611 110.046 88.2783C109.207 88.838 108.379 89.386 107.516 89.9573C105.114 91.5781 102.689 93.1638 100.275 94.7613C98.9691 95.6591 97.6632 96.5685 96.3106 97.5013C95.3079 98.131 94.3051 98.7723 93.279 99.4253C92.5095 99.4253 91.7399 99.4253 90.947 99.4253C89.5945 97.2682 89.5945 97.2682 88.1136 94.2715C87.5773 93.1988 87.0293 92.1144 86.4696 91.0067C85.3386 88.7214 84.2075 86.436 83.0765 84.1506C80.0566 78.1924 77.3048 73.6683 72.291 69.1093C72.291 68.3397 72.291 67.5701 72.291 66.7773C73.4454 66.3925 74.5997 66.0077 75.789 65.6113C77.3281 65.996 78.8673 66.3808 80.453 66.7773C80.8378 67.5468 81.2226 68.3164 81.619 69.1093C82.3886 68.3397 83.1581 67.5701 83.951 66.7773C85.8749 66.7773 87.7988 66.7773 89.781 66.7773C90.8421 63.9089 90.8421 63.9089 90.947 60.9473C91.7166 61.7168 92.4861 62.4864 93.279 63.2793C93.6638 62.1249 94.0486 60.9706 94.445 59.7812Z" fill="#C9CBE8"/>
<path d="M111.936 13.1419C132.772 11.8943 132.772 11.8943 142.252 16.6399C145.202 19.6482 147.37 22.2134 149.248 25.9679C149.679 30.6902 150.029 34.7362 148.023 39.1437C145.983 42.4318 143.826 45.3818 141.086 48.1219C136.748 49.2646 132.737 49.2879 128.26 49.2879C128.26 48.5183 128.26 47.7488 128.26 46.9559C127.49 46.9559 126.72 46.9559 125.928 46.9559C125.928 47.7254 125.928 48.495 125.928 49.2879C125.158 48.9031 124.388 48.5183 123.596 48.1219C123.596 46.9675 123.596 45.8132 123.596 44.6239C125.041 42.8982 125.041 42.8982 126.511 41.1259C129.589 36.8816 129.589 36.8816 129.974 33.0338C130.183 28.2882 130.183 28.2882 129.426 23.6359C127.886 24.0207 126.347 24.4054 124.762 24.8019C123.572 27.1222 122.406 29.4542 121.264 31.7979C120.109 31.7979 118.955 31.7979 117.766 31.7979C117.381 31.0283 116.996 30.2588 116.6 29.4659C115.83 29.4659 115.06 29.4659 114.268 29.4659C114.338 24.8718 114.338 24.8718 115.434 20.1379C118.419 19.2634 118.419 19.2634 121.264 18.9719C121.264 17.4328 121.264 15.8936 121.264 14.3079C116.6 14.0164 116.6 14.0164 111.936 14.3079C111.936 13.9231 111.936 13.5383 111.936 13.1419Z" fill="#A1B6F3"/>
<path d="M163.24 46.9559C165.887 46.6877 165.887 46.6877 169.361 46.7344C171.064 46.746 171.064 46.746 172.801 46.7577C176.066 46.9559 176.066 46.9559 180.73 48.1219C180.73 48.8915 180.73 49.661 180.73 50.4539C179.576 50.4539 178.421 50.4539 177.232 50.4539C177.279 51.9464 177.325 53.4388 177.384 54.978C177.325 56.5637 177.279 58.1495 177.232 59.7819C174.387 61.1694 174.387 61.1694 171.402 62.1139C171.262 63.0467 171.11 63.9678 170.971 64.9239C170.609 66.4164 170.609 66.4164 170.236 67.9439C165.21 71.2786 158.972 72.5146 153.177 73.9255C151.883 73.8672 150.589 73.8205 149.248 73.7739C148.805 70.3458 148.805 70.3458 149.248 66.7779C148.478 66.7779 147.709 66.7779 146.916 66.7779C146.916 66.0083 146.916 65.2388 146.916 64.4459C146.146 64.4459 145.377 64.4459 144.584 64.4459C144.584 62.9068 144.584 61.3676 144.584 59.7819C143.045 59.7819 141.506 59.7819 139.92 59.7819C140.305 58.2428 140.689 56.7036 141.086 55.1179C144.071 54.395 144.071 54.395 146.916 53.9519C146.916 53.1823 146.916 52.4128 146.916 51.6199C151.149 50.8387 155.393 50.4189 159.672 49.9409C160.85 49.731 162.027 49.5094 163.24 49.2879C163.24 48.5183 163.24 47.7488 163.24 46.9559Z" fill="#A5B8F2"/>
<path d="M134.089 59.7812C137.226 60.4342 137.226 60.4342 139.919 62.1133C139.919 63.6524 139.919 65.1915 139.919 66.7773C140.689 66.7773 141.459 66.7773 142.251 66.7773C142.251 67.5468 142.251 68.3164 142.251 69.1093C146.263 70.4735 149.656 71.4413 153.911 71.4413C154.681 71.826 155.451 72.2108 156.243 72.6073C154.704 73.7616 153.165 74.9159 151.579 76.1053C151.579 76.8748 151.579 77.6444 151.579 78.4373C152.734 78.822 153.888 79.2068 155.077 79.6033C154.156 79.5216 153.235 79.44 152.291 79.3467C136.655 77.3062 136.655 77.3062 121.485 79.7665C120.645 80.093 119.794 80.4311 118.931 80.7693C118.547 79.9997 118.162 79.2301 117.765 78.4373C116.611 78.0525 115.457 77.6677 114.267 77.2713C114.267 76.5017 114.267 75.7321 114.267 74.9393C112.728 75.324 111.189 75.7088 109.603 76.1053C109.219 77.2596 108.834 78.4139 108.437 79.6033C107.668 79.2185 106.898 78.8337 106.105 78.4373C107.563 74.8693 107.563 74.8693 109.603 71.4413C110.373 71.4413 111.143 71.4413 111.935 71.4413C112.32 70.2869 112.705 69.1326 113.101 67.9433C115.025 67.9433 116.949 67.9433 118.931 67.9433C120.086 67.5585 121.24 67.1737 122.429 66.7773C123.292 63.8389 123.292 63.8389 123.595 60.9473C124.365 62.4864 125.135 64.0255 125.927 65.6113C130.72 63.5241 130.72 63.5241 134.089 59.7812Z" fill="#BBC4EF"/>
<path d="M95.6103 0.316228C95.6103 0.701008 95.6103 1.08579 95.6103 1.48223C94.0479 1.64547 92.4854 1.82037 90.8763 1.99527C88.6026 2.32175 88.6026 2.32175 86.2823 2.64823C86.6671 3.41779 87.0519 4.18735 87.4483 4.98023C86.0724 5.15513 86.0724 5.15513 84.6732 5.34169C83.6705 5.60987 82.656 5.87805 81.6183 6.14623C81.4317 7.11401 81.2335 8.07013 81.0353 9.06123C80.8487 10.0173 80.6505 10.9851 80.4523 11.9762C77.6073 13.0023 77.6073 13.0023 74.6223 13.1422C73.8527 12.7574 73.0832 12.3727 72.2903 11.9762C69.97 18.0861 68.7573 22.4119 68.9322 28.9532C69.2704 30.2824 69.6085 31.6 69.9583 32.9642C71.1126 33.349 72.267 33.7338 73.4563 34.1302C73.1298 36.0891 72.7334 38.0247 72.2903 39.9602C72.5818 42.8985 72.5818 42.8985 73.4563 45.7902C73.7245 46.8979 73.981 48.0056 74.2608 49.1483C75.0187 50.3726 75.0187 50.3726 75.7883 51.6202C79.4262 51.5269 79.4262 51.5269 82.7843 50.4542C82.3995 50.0694 82.0147 49.6847 81.6183 49.2882C83.344 48.7169 83.344 48.7169 85.1163 48.1222C88.0196 52.4714 88.0663 55.7945 88.6143 60.9482C88.9524 62.0792 89.2906 63.2103 89.6287 64.3763C89.687 65.1691 89.7337 65.962 89.7803 66.7782C87.0868 67.5828 87.0868 67.5828 83.9503 67.9442C83.1807 68.7138 82.4112 69.4833 81.6183 70.2762C79.6478 69.1685 77.7005 67.9909 75.7883 66.7782C74.634 66.7782 73.4796 66.7782 72.2903 66.7782C71.9055 67.5478 71.5207 68.3173 71.1243 69.1102C69.97 67.9559 68.8156 66.8015 67.6263 65.6122C70.3314 64.7844 73.0599 64.0148 75.7883 63.2802C76.1731 62.1259 76.5579 60.9715 76.9543 59.7822C75.7533 56.8905 74.4241 54.0572 73.0132 51.2588C70.3081 45.8369 68.3609 41.3128 67.6263 35.2962C67.2182 33.6172 66.8101 31.9265 66.3903 30.2008C65.3293 24.9655 64.6763 20.7679 65.2943 15.4742C67.5563 12.4893 67.5563 12.4893 71.1243 9.64423C71.9988 8.94463 72.8733 8.24503 73.7711 7.52211C81.8049 1.12077 85.2562 0.0480478 95.6103 0.316228Z" fill="#9EABD9"/>
<path d="M122.43 46.9551C123.199 47.3399 123.969 47.7246 124.762 48.1211C125.146 47.7363 125.531 47.3515 125.928 46.9551C127.875 47.5731 127.875 47.5731 129.869 48.191C131.956 48.7391 131.956 48.7391 134.09 49.2871C135.244 48.5175 136.398 47.748 137.588 46.9551C138.742 47.7246 139.896 48.4942 141.086 49.2871C138.975 52.9367 138.975 52.9367 136.422 56.2831C138.345 55.5135 140.269 54.744 142.252 53.9511C141.774 54.9189 141.295 55.875 140.794 56.8661C140.503 57.8222 140.223 58.79 139.92 59.7811C141.459 59.7811 142.998 59.7811 144.584 59.7811C144.584 61.3202 144.584 62.8593 144.584 64.4451C145.353 64.4451 146.123 64.4451 146.916 64.4451C146.916 65.2146 146.916 65.9842 146.916 66.7771C147.685 66.7771 148.455 66.7771 149.248 66.7771C149.248 67.9314 149.248 69.0858 149.248 70.2751C145.75 70.0535 145.75 70.0535 142.252 69.1091C142.252 68.3395 142.252 67.57 142.252 66.7771C141.482 66.7771 140.712 66.7771 139.92 66.7771C137.972 64.8299 136.037 62.8943 134.09 60.9471C133.32 60.9471 132.55 60.9471 131.758 60.9471C130.988 62.4862 130.218 64.0253 129.426 65.6111C127.886 65.6111 126.347 65.6111 124.762 65.6111C124.377 65.2263 123.992 64.8415 123.596 64.4451C122.896 65.2146 122.196 65.9842 121.485 66.7771C120.646 67.5466 119.794 68.3162 118.932 69.1091C117.392 68.7243 115.853 68.3395 114.268 67.9431C115.865 63.7921 115.865 63.7921 117.766 59.7811C116.996 59.7811 116.226 59.7811 115.434 59.7811C115.818 58.242 116.203 56.7028 116.6 55.1171C116.6 53.9627 116.6 52.8084 116.6 51.6191C119.363 48.9956 119.363 48.9956 122.43 46.9551Z" fill="#AEBCEF"/>
<path d="M97.9432 4.98047C100.858 5.42355 100.858 5.42355 103.773 6.14647C103.773 6.91603 103.773 7.68559 103.773 8.47847C104.706 8.64171 105.65 8.81661 106.618 8.99151C107.598 9.20139 108.589 9.42293 109.603 9.64447C109.988 10.7988 110.373 11.9531 110.769 13.1425C110.384 13.912 110 14.6816 109.603 15.4745C108.834 15.4745 108.064 15.4745 107.271 15.4745C106.012 19.7187 106.012 19.7187 106.105 22.4705C107.26 23.6248 108.414 24.7791 109.603 25.9685C109.09 29.618 109.09 29.618 107.271 32.9645C103.633 34.1305 103.633 34.1305 100.275 34.1305C100.275 33.3609 100.275 32.5913 100.275 31.7985C99.5057 31.7985 98.7361 31.7985 97.9432 31.7985C97.9432 31.0289 97.9432 30.2593 97.9432 29.4665C97.0571 29.9445 96.1593 30.4226 95.2498 30.924C94.212 31.2155 93.1743 31.507 92.1132 31.7985C89.9212 28.8135 89.9212 28.8135 88.6152 24.8025C88.7552 21.526 88.7552 21.526 89.7812 18.9725C90.9356 18.5877 92.0899 18.2029 93.2792 17.8065C92.5097 17.0369 91.7401 16.2673 90.9472 15.4745C90.2943 11.9065 90.2943 11.9065 90.9472 8.47847C95.0982 7.60397 95.0982 7.60397 99.1092 7.31247C98.7245 6.54291 98.3397 5.77335 97.9432 4.98047Z" fill="#A2B6F2"/>
<path d="M27.9841 22.4688C28.8003 22.8069 29.6165 23.145 30.4677 23.4948C33.8724 24.8824 33.8724 24.8824 37.7552 25.9668C38.7579 26.3515 39.7724 26.7363 40.8101 27.1328C40.4253 27.9023 40.0405 28.6719 39.6441 29.4648C40.4137 30.2343 41.1832 31.0039 41.9761 31.7968C41.9761 31.0272 41.9761 30.2576 41.9761 29.4648C43.5152 28.6952 45.0543 27.9256 46.6401 27.1328C47.6662 29.8262 47.6662 29.8262 47.8061 32.9628C47.0365 33.3475 46.267 33.7323 45.4741 34.1288C45.719 35.1199 45.9522 36.0993 46.2087 37.1137C46.3486 38.0582 46.4885 38.991 46.6401 39.9588C45.101 39.9588 43.5619 39.9588 41.9761 39.9588C41.9761 41.1131 41.9761 42.2674 41.9761 43.4568C41.2065 44.2263 40.437 44.9959 39.6441 45.7888C39.2593 46.5583 38.8745 47.3279 38.4781 48.1208C34.607 46.3834 30.9691 44.5411 27.2495 42.5123C26.2118 41.9759 25.174 41.4396 24.113 40.8916C16.5806 36.7872 11.5785 32.0766 6.99609 24.8008C6.99609 24.416 6.99609 24.0312 6.99609 23.6348C9.32809 23.5881 11.6601 23.5881 13.9921 23.6348C12.8378 24.2178 12.8378 24.2178 11.6601 24.8008C11.6601 25.5703 11.6601 26.3399 11.6601 27.1328C13.1992 27.5175 14.7383 27.9023 16.3241 28.2988C16.7089 29.4531 17.0937 30.6074 17.4901 31.7968C18.6444 31.412 19.7988 31.0272 20.9881 30.6308C22.947 31.7618 24.8942 32.9278 26.8181 34.1288C27.9724 34.1288 29.1268 34.1288 30.3161 34.1288C31.5054 30.8756 31.5054 30.8756 31.4821 27.1328C30.3278 25.5936 29.1734 24.0545 27.9841 22.4688Z" fill="#A0B4EF"/>
<path d="M66.4608 42.291C67.6151 42.6758 68.7694 43.0606 69.9588 43.457C72.1275 47.06 72.1275 47.06 74.3313 51.5491C75.0658 53.0182 75.8121 54.499 76.57 56.0265C77.3395 57.8804 77.3395 57.8804 78.1208 59.781C77.736 60.5506 77.3512 61.3201 76.9548 62.113C73.8182 64.0836 73.8182 64.0836 69.9588 65.611C65.0616 65.611 61.5286 63.8504 57.2727 61.6C54.894 60.1192 54.894 60.1192 52.4688 58.615C52.4688 57.8455 52.4688 57.0759 52.4688 56.283C53.2383 56.283 54.0079 56.283 54.8008 56.283C55.5703 54.7439 56.3399 53.2048 57.1328 51.619C58.2871 51.2342 59.4414 50.8495 60.6308 50.453C59.4764 49.6835 58.3221 48.9139 57.1328 48.121C57.1328 47.3515 57.1328 46.5819 57.1328 45.789C59.4648 45.7424 61.7968 45.7424 64.1288 45.789C65.4813 44.5647 65.4813 44.5647 66.4608 42.291Z" fill="#B2BFEE"/>
<path d="M182.631 47.3995C185.511 48.787 188.367 50.1979 191.236 51.632C190.839 52.7864 190.454 53.9407 190.07 55.13C190.641 55.7014 190.641 55.7014 191.236 56.296C188.915 57.4504 188.915 57.4504 186.572 58.628C185.032 57.8468 183.482 57.0773 181.896 56.296C181.896 57.4504 181.896 58.6047 181.896 59.794C183.82 59.794 185.744 59.794 187.738 59.794C189.627 64.458 189.627 64.458 190.07 69.122C188.134 69.122 186.222 69.122 184.24 69.122C184.24 67.9677 184.24 66.8017 184.24 65.624C181.08 65.8223 181.08 65.8223 177.384 66.7084C173.536 67.5479 173.536 67.5479 170.236 67.956C169.466 67.1748 168.697 66.4053 167.904 65.624C167.904 64.0733 167.904 62.5341 167.904 60.96C170.224 60.8085 170.224 60.8085 172.568 60.6685C174.119 60.377 175.646 60.0855 177.232 59.794C178.596 55.13 178.596 55.13 177.232 50.466C173.804 49.1135 173.804 49.1135 170.236 49.3C171.402 48.9036 172.556 48.5188 173.734 48.134C177.232 49.3 177.232 49.3 180.73 50.466C180.73 49.6965 180.73 48.9153 180.73 48.134C176.742 47.4811 176.742 47.4811 171.985 47.2479C170.364 47.1429 168.743 47.0263 167.076 46.9097C165.176 46.9331 165.176 46.9331 163.24 46.9564C163.24 47.7259 163.24 48.4955 163.24 49.3C157.631 51.0374 152.758 51.632 146.916 51.632C146.916 52.4016 146.916 53.1712 146.916 53.964C145.377 53.5676 143.838 53.1828 142.252 52.798C155.125 45.8953 168.394 43.1669 182.631 47.3995Z" fill="#A1B6F3"/>
<path d="M41.9745 37.627C44.3299 39.5392 46.6619 41.4864 48.9705 43.457C49.3553 42.3026 49.7401 41.1483 50.1365 39.959C52.9816 38.8629 52.9816 38.8629 55.9665 38.793C56.7361 40.3321 57.5057 41.8712 58.2985 43.457C59.0681 43.8417 59.8377 44.2265 60.6305 44.623C60.7938 43.4686 60.9687 42.3143 61.1436 41.125C61.3535 39.9706 61.575 38.8163 61.7965 37.627C62.9509 38.0117 64.1052 38.3965 65.2945 38.793C66.239 43.5269 66.239 43.5269 66.4605 48.121C65.691 48.121 64.9214 48.121 64.1285 48.121C64.1285 47.3514 64.1285 46.5818 64.1285 45.789C62.5894 46.1737 61.0503 46.5585 59.4645 46.955C58.695 46.5702 57.9254 46.1854 57.1325 45.789C57.9021 46.5585 58.6717 47.3281 59.4645 48.121C59.8493 48.8905 60.2341 49.6601 60.6305 50.453C57.1325 54.394 57.1325 54.394 52.4685 57.449C48.166 55.7699 48.166 55.7699 44.3065 52.785C42.7674 51.6306 41.2283 50.4763 39.6425 49.287C39.6425 48.1326 39.6425 46.9783 39.6425 45.789C38.873 45.4042 38.1034 45.0194 37.3105 44.623C38.4649 43.8534 39.6192 43.0838 40.8085 42.291C41.1933 40.7518 41.5781 39.2127 41.9745 37.627Z" fill="#A8BBF0"/>
<path d="M97.8732 80.4776C98.9926 80.6875 100.112 80.8974 101.255 81.1189C102.502 81.5154 102.502 81.5154 103.773 81.9351C103.773 82.7047 103.773 83.4743 103.773 84.2671C106.478 84.7452 109.207 85.1416 111.935 85.4331C108.356 89.2809 104.508 92.1493 100.135 95.0526C98.8993 95.8805 97.675 96.6967 96.404 97.5479C95.378 98.1659 94.3402 98.7838 93.2792 99.4251C92.5096 99.4251 91.74 99.4251 90.9472 99.4251C88.6501 95.6823 88.6501 95.6823 86.2132 90.8317C85.3853 89.2343 84.5458 87.6369 83.6946 85.9928C83.3915 84.6519 83.1 83.311 82.7852 81.9351C87.9156 79.2767 92.3114 79.3466 97.8732 80.4776Z" fill="#B4967A"/>
<path d="M17.4883 36.4609C28.4137 41.4514 38.4879 47.0482 48.3873 53.811C49.3667 54.4756 50.3578 55.1403 51.3606 55.8282C53.7276 57.4606 56.0129 59.1979 58.2983 60.9469C58.2983 61.7165 58.2983 62.4861 58.2983 63.2789C53.3894 63.244 48.5155 62.4394 43.6533 61.8214C42.2541 61.6582 40.8549 61.5066 39.4091 61.3434C38.0915 61.1801 36.7739 61.0169 35.4097 60.8537C34.1854 60.7021 32.9611 60.5622 31.6902 60.3989C30.8506 60.2007 30.0111 59.9908 29.1483 59.7809C29.5331 59.0114 29.9178 58.2418 30.3143 57.4489C33.8822 57.309 33.8822 57.309 37.3103 57.4489C33.0427 53.0998 28.7752 48.9255 24.1228 44.9844C19.8203 41.1249 19.8203 41.1249 17.4883 36.4609Z" fill="#374F8D"/>
<path d="M174.9 73.7737C174.9 74.5433 174.9 75.3128 174.9 76.1057C175.67 76.4905 176.439 76.8753 177.232 77.2717C177.232 78.0413 177.232 78.8108 177.232 79.6037C175.285 79.9885 173.349 80.3849 171.402 80.7697C171.402 81.5393 171.402 82.3088 171.402 83.1017C172.556 83.4865 173.711 83.8713 174.9 84.2677C172.848 84.979 170.784 85.6553 168.709 86.3082C167.554 86.6813 166.412 87.0661 165.222 87.4509C164.185 87.5558 163.147 87.6608 162.074 87.7657C160.92 86.2266 159.765 84.6875 158.576 83.1017C153.807 81.5976 153.807 81.5976 149.248 80.7697C150.018 80.0001 150.787 79.2306 151.58 78.4377C151.195 77.2834 150.81 76.129 150.414 74.9397C158.424 72.7943 166.831 71.0802 174.9 73.7737Z" fill="#A3B7EE"/>
<path d="M136.141 77.0044C140.735 77.3309 144.886 78.1238 149.247 79.6046C150.017 80.3742 150.786 81.1437 151.579 81.9366C150.81 82.3214 150.04 82.7062 149.247 83.1026C143.021 82.6712 137.121 81.89 131.034 80.5491C129.344 80.2343 127.664 79.9311 125.927 79.6046C125.927 80.3742 125.927 81.1437 125.927 81.9366C126.697 82.3214 127.466 82.7062 128.259 83.1026C125.927 84.2686 125.927 84.2686 122.068 84.7117C117.788 85.4346 115.503 86.589 111.935 88.9326C111.166 88.9326 110.396 88.9326 109.603 88.9326C109.603 89.7022 109.603 90.4717 109.603 91.2646C105.091 94.3312 105.091 94.3312 100.275 97.0946C99.5056 97.0946 98.736 97.0946 97.9431 97.0946C97.5584 98.249 97.1736 99.4033 96.7771 100.593C95.6228 101.362 94.4685 102.132 93.2791 102.925C91.74 102.54 90.2009 102.155 88.6151 101.759C86.9244 98.4938 86.9244 98.4938 85.4786 94.4012C85.0005 93.0603 84.5108 91.7194 84.0094 90.3318C83.1 87.5684 82.3304 84.7583 81.6191 81.9366C84.8373 85.1548 86.2948 87.3469 88.2537 91.3346C88.7667 92.3607 89.2681 93.3867 89.7928 94.4361C90.9471 97.0946 90.9471 97.0946 90.9471 99.4266C99.3074 94.2263 107.446 88.781 115.503 83.1259C116.634 82.3447 117.765 81.5752 118.931 80.7706C119.887 80.0943 120.843 79.4297 121.834 78.7301C126.557 76.3748 130.964 76.8762 136.141 77.0044Z" fill="#465991"/>
<path d="M103.773 36.4609C106.105 41.1249 106.105 41.1249 106.105 46.9549C107.26 46.9549 108.414 46.9549 109.603 46.9549C109.58 48.7156 109.557 50.4646 109.533 52.2719C109.557 53.9859 109.58 55.6883 109.603 57.4489C111.142 57.0642 112.682 56.6794 114.267 56.2829C113.976 59.128 113.976 59.128 113.101 62.1129C112.716 60.9586 112.332 59.8043 111.935 58.6149C110.781 58.6149 109.627 58.6149 108.437 58.6149C107.668 57.4606 106.898 56.3063 106.105 55.1169C106.105 53.9626 106.105 52.8083 106.105 51.6189C104.951 51.6189 103.797 51.6189 102.607 51.6189C102.222 52.3885 101.838 53.1581 101.441 53.9509C101.441 52.7966 101.441 51.6423 101.441 50.4529C100.672 50.4529 99.9021 50.4529 99.1093 50.4529C99.1093 51.9921 99.1093 53.5312 99.1093 55.1169C98.3397 55.1169 97.5701 55.1169 96.7773 55.1169C96.3925 54.3474 96.0077 53.5778 95.6113 52.7849C95.2265 53.5545 94.8417 54.3241 94.4453 55.1169C93.2909 54.7322 92.1366 54.3474 90.9473 53.9509C91.7168 53.9509 92.4864 53.9509 93.2793 53.9509C92.9411 51.1992 92.5447 48.4591 92.1133 45.719C91.6818 41.1716 91.6818 41.1716 92.1133 37.6269C97.8733 37.3354 97.8733 37.3354 101.185 38.1866C102.467 38.4898 102.467 38.4898 103.773 38.7929C103.773 38.0234 103.773 37.2538 103.773 36.4609Z" fill="#ABBBEF"/>
<path d="M12.8242 48.1211C17.6631 48.1211 20.6947 49.1239 24.9273 51.4792C25.9301 52.2954 26.9445 53.1116 27.9822 53.9511C28.367 55.1054 28.7518 56.2598 29.1482 57.4491C26.8046 57.0993 24.4726 56.7145 22.1522 56.2831C22.1522 57.0527 22.1522 57.8222 22.1522 58.6151C23.3066 59.7694 24.4609 60.9238 25.6502 62.1131C25.6502 62.8827 25.6502 63.6522 25.6502 64.4451C27.1893 65.2147 28.7285 65.9842 30.3142 66.7771C30.3142 67.5467 30.3142 68.3162 30.3142 69.1091C31.8533 68.7243 33.3925 68.3395 34.9782 67.9431C34.9782 69.8903 34.9782 71.8259 34.9782 73.7731C36.1326 73.7731 37.2869 73.7731 38.4762 73.7731C38.861 75.3122 39.2458 76.8513 39.6422 78.4371C40.4118 78.4371 41.1813 78.4371 41.9742 78.4371C42.359 77.2828 42.7438 76.1284 43.1402 74.9391C43.525 76.4782 43.9098 78.0173 44.3062 79.6031C45.8453 79.9879 47.3845 80.3727 48.9702 80.7691C48.9702 82.693 48.9702 84.6169 48.9702 86.5991C49.7398 86.5991 50.5093 86.5991 51.3022 86.5991C50.7309 87.7534 50.7309 87.7534 50.1362 88.9311C46.9297 86.2843 43.8631 83.5792 40.8082 80.7691C39.1408 79.3116 37.4618 77.8541 35.7828 76.3966C33.1126 74.0413 30.5008 71.6277 27.9822 69.1091C27.9822 68.3395 27.9822 67.57 27.9822 66.7771C26.4431 66.0075 24.904 65.238 23.3182 64.4451C20.5665 61.8333 20.5665 61.8333 17.7797 58.7667C16.8469 57.7523 15.9141 56.7495 14.958 55.7118C14.2467 54.744 13.5471 53.7762 12.8242 52.7851C12.8242 51.246 12.8242 49.7069 12.8242 48.1211ZM43.1402 73.7731C46.6382 74.9391 46.6382 74.9391 46.6382 74.9391L43.1402 73.7731Z" fill="#384C88"/>
<path d="M111.936 13.1418C115.119 13.0252 118.302 12.9902 121.485 12.9902C123.257 12.9902 125.03 12.9902 126.849 12.9902C134.264 13.2234 134.264 13.2234 137.588 14.3078C137.203 15.0774 136.818 15.8469 136.422 16.6398C136.422 17.4094 136.422 18.1789 136.422 18.9718C135.267 18.9718 134.113 18.9718 132.924 18.9718C132.924 19.7414 132.924 20.5109 132.924 21.3038C133.693 21.3038 134.463 21.3038 135.256 21.3038C134.871 22.4582 134.486 23.6125 134.09 24.8018C132.55 24.417 131.011 24.0323 129.426 23.6358C127.886 24.0206 126.347 24.4054 124.762 24.8018C123.572 27.1222 122.406 29.4542 121.264 31.7978C120.109 31.7978 118.955 31.7978 117.766 31.7978C117.381 31.0283 116.996 30.2587 116.6 29.4658C115.83 29.4658 115.06 29.4658 114.268 29.4658C114.338 24.8718 114.338 24.8718 115.434 20.1378C118.419 19.2633 118.419 19.2633 121.264 18.9718C121.264 17.4327 121.264 15.8936 121.264 14.3078C116.6 14.0163 116.6 14.0163 111.936 14.3078C111.936 13.923 111.936 13.5383 111.936 13.1418Z" fill="#A3B6F2"/>
<path d="M134.09 59.7812C137.156 60.5858 137.156 60.5858 139.92 62.1133C139.92 63.6524 139.92 65.1915 139.92 66.7773C140.689 66.7773 141.459 66.7773 142.252 66.7773C142.252 67.5468 142.252 68.3164 142.252 69.1093C146.263 70.4735 149.656 71.4413 153.912 71.4413C154.681 71.826 155.451 72.2108 156.244 72.6073C154.705 73.7616 153.166 74.9159 151.58 76.1053C151.58 76.8748 151.58 77.6444 151.58 78.4373C152.734 78.822 153.888 79.2068 155.078 79.6033C136.049 78.2041 136.049 78.2041 128.26 77.2713C128.26 76.8865 128.26 76.5017 128.26 76.1053C130.242 75.9653 130.242 75.9653 132.271 75.8138C133.635 75.5223 135.011 75.2424 136.422 74.9393C137.669 72.0359 137.669 72.0359 137.588 69.1093C135.279 70.2636 135.279 70.2636 132.924 71.4413C131.898 66.4158 131.898 66.4158 131.758 60.9473C132.527 60.5625 133.297 60.1777 134.09 59.7812Z" fill="#B3C0F0"/>
<path d="M81.619 48.1211C82.7733 48.1211 83.9276 48.1211 85.117 48.1211C88.0203 52.4703 88.0669 55.7934 88.615 60.9471C88.9531 62.0781 89.2912 63.2091 89.641 64.3751C89.6877 65.168 89.7343 65.9609 89.781 66.7771C87.0875 67.5816 87.0875 67.5816 83.951 67.9431C83.1814 68.7127 82.4118 69.4822 81.619 70.2751C79.6484 69.1674 77.7012 67.9897 75.789 66.7771C74.6346 66.7771 73.4803 66.7771 72.291 66.7771C71.9062 67.5467 71.5214 68.3162 71.125 69.1091C69.9706 67.9548 68.8163 66.8004 67.627 65.6111C70.3204 64.7366 73.0489 63.967 75.789 63.2791C76.1737 62.5095 76.5585 61.74 76.955 60.9471C77.7245 62.4862 78.4941 64.0253 79.287 65.6111C80.0565 65.6111 80.8261 65.6111 81.619 65.6111C80.5346 63.4423 80.5346 63.4423 79.4269 61.2386C76.955 56.2831 76.955 56.2831 76.955 51.6191C80.453 50.1616 80.453 50.1616 83.951 49.2871C83.1814 48.9023 82.4118 48.5175 81.619 48.1211Z" fill="#B9C3EA"/>
<path d="M110.769 10.8088C114.571 10.5873 117.929 10.6456 121.707 10.9604C122.721 11.007 123.747 11.0653 124.796 11.1236C129.484 11.4384 132.457 11.66 136.421 14.3068C134.882 14.6916 133.343 15.0764 131.757 15.4728C131.757 14.7032 131.757 13.9337 131.757 13.1408C126.487 13.2457 126.487 13.2457 121.263 14.3068C121.263 15.4611 121.263 16.6155 121.263 17.8048C125.344 18.003 125.344 18.003 129.425 17.8048C129.425 18.1896 129.425 18.5744 129.425 18.9708C125.939 19.7753 122.441 20.5566 118.931 21.3028C117.777 21.6876 116.623 22.0724 115.433 22.4688C115.049 23.6231 114.664 24.7775 114.267 25.9668C113.883 25.1972 113.498 24.4277 113.101 23.6348C112.332 26.3283 111.562 29.0217 110.769 31.7968C108.437 27.1328 108.437 27.1328 107.271 23.6348C106.502 24.7891 105.732 25.9435 104.939 27.1328C104.135 24.5793 104.135 24.5793 103.773 21.3028C105.301 18.0263 105.301 18.0263 107.271 15.4728C108.041 15.4728 108.811 15.4728 109.603 15.4728C109.988 13.9337 110.373 12.3946 110.769 10.8088Z" fill="#A0B5F2"/>
<path d="M113.102 22.4702C113.487 22.4702 113.871 22.4702 114.268 22.4702C114.245 23.6246 114.221 24.7789 114.198 25.9682C114.221 27.1226 114.245 28.2769 114.268 29.4662C115.037 29.4662 115.807 29.4662 116.6 29.4662C116.985 28.6967 117.369 27.9271 117.766 27.1342C119.305 27.1342 120.844 27.1342 122.43 27.1342C123.199 25.9799 123.969 24.8255 124.762 23.6362C127.77 22.4469 127.77 22.4469 130.592 22.4702C132.119 27.0759 131.501 31.7632 130.592 36.4622C128.423 40.4966 125.975 44.0179 122.43 46.9562C122.045 46.1867 121.66 45.4171 121.264 44.6242C122.01 43.5165 122.756 42.4088 123.526 41.2778C124.319 40.0652 125.112 38.8642 125.928 37.6282C125.928 36.0891 125.928 34.55 125.928 32.9642C125.158 32.9642 124.389 32.9642 123.596 32.9642C123.211 33.7338 122.826 34.5033 122.43 35.2962C120.098 35.2962 117.766 35.2962 115.434 35.2962C115.434 34.1419 115.434 32.9875 115.434 31.7982C114.664 31.7982 113.895 31.7982 113.102 31.7982C111.854 34.8765 110.688 37.9897 109.604 41.1262C108.438 36.4622 108.438 36.4622 109.044 33.2441C109.371 32.113 109.709 30.9937 110.035 29.8277C110.362 28.6967 110.688 27.5656 111.015 26.388C111.936 23.6362 111.936 23.6362 113.102 22.4702Z" fill="#9BAFEA"/>
<path d="M74.623 38.7935C80.2315 37.6974 80.2315 37.6974 83.4496 37.7091C84.3824 38.0706 85.3152 38.4204 86.283 38.7935C88.6616 43.6557 89.5828 48.5529 89.781 53.9515C88.6267 54.5228 88.6267 54.5228 87.449 55.1175C86.6794 54.3479 85.9099 53.5784 85.117 52.7855C85.117 51.2464 85.117 49.7073 85.117 48.1215C83.9627 49.8472 83.9627 49.8472 82.785 51.6195C82.0154 51.2347 81.2459 50.8499 80.453 50.4535C80.0682 51.2231 79.6834 51.9926 79.287 52.7855C77.7479 52.4007 76.2088 52.0159 74.623 51.6195C72.361 46.3025 72.361 46.3025 71.125 41.1255C72.2793 41.1255 73.4337 41.1255 74.623 41.1255C74.623 40.3559 74.623 39.5864 74.623 38.7935Z" fill="#AEBDEE"/>
<path d="M44.3066 11.9766C53.553 17.1886 59.9777 24.3828 65.3646 33.4776C68.7926 39.5525 68.7926 39.5525 68.7926 42.2926C67.6383 42.2926 66.484 42.2926 65.2946 42.2926C65.2946 41.1382 65.2946 39.9839 65.2946 38.7946C64.5251 38.7946 63.7555 38.7946 62.9626 38.7946C62.6012 39.7857 62.2397 40.7651 61.8666 41.7795C61.4585 42.724 61.0504 43.6568 60.6306 44.6246C59.4763 44.2398 58.322 43.855 57.1326 43.4586C56.7129 41.523 56.3164 39.5758 55.9666 37.6286C55.1971 37.6286 54.4275 37.6286 53.6346 37.6286C53.6346 36.859 53.6346 36.0894 53.6346 35.2966C55.1738 35.6813 56.7129 36.0661 58.2986 36.4626C58.2986 35.3082 58.2986 34.1539 58.2986 32.9646C57.5291 32.195 56.7595 31.4254 55.9666 30.6326C55.9666 28.7087 55.9666 26.7848 55.9666 24.8026C53.2615 23.6132 50.5331 22.4472 47.8046 21.3046C48.1894 19.7654 48.5742 18.2263 48.9706 16.6406C47.4315 16.6406 45.8924 16.6406 44.3066 16.6406C44.3066 15.1014 44.3066 13.5623 44.3066 11.9766Z" fill="#9DADDF"/>
<path d="M18.6543 15.4746C22.2572 15.5562 24.7641 16.1975 27.9823 17.8066C27.9823 18.5762 27.9823 19.3457 27.9823 20.1386C27.2127 20.1386 26.4432 20.1386 25.6503 20.1386C26.4198 21.6777 27.1894 23.2168 27.9823 24.8026C29.5214 25.5722 31.0605 26.3417 32.6463 27.1346C31.4803 31.7986 31.4803 31.7986 30.3143 34.1306C28.7752 34.5154 27.236 34.9002 25.6503 35.2966C25.2655 34.527 24.8807 33.7575 24.4843 32.9646C22.9452 32.9646 21.406 32.9646 19.8203 32.9646C19.0507 32.5798 18.2812 32.195 17.4883 31.7986C17.6282 28.8836 17.6282 28.8836 18.6543 25.9686C20.1934 25.5838 21.7325 25.199 23.3183 24.8026C23.3183 24.033 23.3183 23.2635 23.3183 22.4706C22.1639 22.4706 21.0096 22.4706 19.8203 22.4706C19.4355 23.2402 19.0507 24.0097 18.6543 24.8026C17.4883 22.4706 17.4883 22.4706 17.5582 18.7511C17.9197 17.6667 18.2812 16.594 18.6543 15.4746Z" fill="#A0B5F4"/>
<path d="M136.422 46.9551C137.961 47.7246 139.5 48.4942 141.086 49.2871C139.045 52.9367 139.045 52.9367 136.422 56.2831C138.346 55.5135 140.27 54.744 142.252 53.9511C141.774 54.9189 141.284 55.875 140.794 56.8661C140.503 57.8222 140.211 58.79 139.92 59.7811C141.459 59.7811 142.998 59.7811 144.584 59.7811C144.584 61.3202 144.584 62.8593 144.584 64.4451C145.353 64.4451 146.123 64.4451 146.916 64.4451C146.916 65.2146 146.916 65.9842 146.916 66.7771C147.685 66.7771 148.455 66.7771 149.248 66.7771C149.248 67.9314 149.248 69.0858 149.248 70.2751C145.75 70.0535 145.75 70.0535 142.252 69.1091C142.252 68.3395 142.252 67.57 142.252 66.7771C141.482 66.7771 140.713 66.7771 139.92 66.7771C137.973 64.8299 136.037 62.8943 134.09 60.9471C133.32 60.9471 132.551 60.9471 131.758 60.9471C130.988 62.4862 130.219 64.0253 129.426 65.6111C128.656 65.6111 127.887 65.6111 127.094 65.6111C129.426 60.9471 129.426 60.9471 131.828 58.6151C132.574 57.8455 133.32 57.076 134.09 56.2831C134.475 54.744 134.859 53.2048 135.256 51.6191C132.376 52.0155 132.376 52.0155 129.426 52.7851C129.426 52.0155 129.426 51.246 129.426 50.4531C131.35 49.6136 133.285 48.844 135.256 48.1211C135.641 47.7363 136.025 47.3515 136.422 46.9551Z" fill="#ABBAEA"/>
<path d="M29.22 3.45205C34.7585 5.29433 39.2825 7.83621 44.308 10.8095C43.1537 11.1943 41.9993 11.5791 40.81 11.9755C38.8395 11.2642 36.9039 10.4714 34.98 9.64351C33.5108 9.25873 32.0417 8.87395 30.5375 8.47751C28.6953 7.90617 28.6953 7.90617 26.818 7.31151C26.818 6.54195 26.818 5.77239 26.818 4.97951C22.2006 4.59473 22.2006 4.59473 17.49 4.97951C17.1052 5.74907 16.7204 6.51863 16.324 7.31151C16.324 6.54195 16.324 5.77239 16.324 4.97951C15.5544 4.97951 14.7849 4.97951 13.992 4.97951C13.7705 6.13385 13.5606 7.28819 13.3274 8.47751C12.7794 9.63185 12.2313 10.7862 11.66 11.9755C6.26142 12.267 6.26142 12.267 1.166 11.9755C1.166 12.7451 1.166 13.5146 1.166 14.3075C2.32034 14.3075 3.47468 14.3075 4.664 14.3075C6.1215 17.0126 6.1215 17.0126 6.996 20.1375C6.61122 21.2919 6.22644 22.4462 5.83 23.6355C3.7895 20.9887 1.85394 18.2603 0 15.4735C0 13.9344 0 12.3953 0 10.8095C1.31758 10.8562 2.64682 10.9028 3.99938 10.9611C6.0632 10.8911 6.0632 10.8911 8.162 10.8095C9.12978 7.39313 9.12978 7.39313 9.328 3.81351C15.8343 1.64475 22.5621 2.32103 29.22 3.45205Z" fill="#9EAFE0"/>
<path d="M191.223 52.7852C192.377 53.9395 193.531 55.0938 194.721 56.2832C195.082 59.9327 195.082 59.9327 194.721 63.2792C193.566 63.8505 193.566 63.8505 192.389 64.4452C194.196 64.3052 194.196 64.3052 196.038 64.1537C197.134 64.2469 198.242 64.3402 199.385 64.4452C198.615 65.9843 197.845 67.5234 197.053 69.1092C195.898 69.6805 195.898 69.6805 194.721 70.2752C194.721 71.0447 194.721 71.8143 194.721 72.6072C192.797 72.6072 190.873 72.6072 188.891 72.6072C188.891 71.8376 188.891 71.068 188.891 70.2752C187.351 70.6599 185.812 71.0447 184.227 71.4412C184.227 70.6716 184.227 69.902 184.227 69.1092C185.766 68.7244 187.305 68.3396 188.891 67.9432C188.156 65.0048 188.156 65.0048 186.559 62.1132C186.174 61.3436 185.789 60.574 185.393 59.7812C184.238 59.7812 183.084 59.7812 181.895 59.7812C181.895 58.6268 181.895 57.4725 181.895 56.2832C184.227 56.2832 186.559 56.2832 188.891 56.2832C189.275 55.5136 189.66 54.744 190.057 53.9512C190.441 53.5664 190.826 53.1816 191.223 52.7852Z" fill="#9FB5F1"/>
<path d="M51.3027 88.9316C55.0339 89.4913 58.2638 90.0393 61.7967 91.2636C63.7906 93.1526 65.7262 95.0998 67.6267 97.0936C71.0548 98.9009 74.5178 100.3 78.1207 101.758C77.736 100.219 77.3512 98.6794 76.9547 97.0936C80.3828 96.6622 80.3828 96.6622 83.9507 97.0936C83.9507 97.8632 83.9507 98.6328 83.9507 99.4256C83.1812 99.4256 82.4116 99.4256 81.6187 99.4256C82.3883 100.965 83.1579 102.504 83.9507 104.09C85.4899 104.859 87.029 105.629 88.6147 106.422C87.0756 106.806 85.5365 107.191 83.9507 107.588C79.928 106.177 76.1619 104.684 72.2907 102.924C70.7983 102.247 70.7983 102.247 69.2708 101.559C62.6363 98.4112 56.9928 94.7383 51.3027 90.0976C51.3027 89.7129 51.3027 89.3281 51.3027 88.9316Z" fill="#374F89"/>
<path d="M111.935 74.9395C112.705 74.9395 113.474 74.9395 114.267 74.9395C114.267 75.709 114.267 76.4786 114.267 77.2715C115.806 77.6562 117.346 78.041 118.931 78.4375C118.931 79.5918 118.931 80.7461 118.931 81.9355C116.669 83.906 116.669 83.906 113.101 85.4335C107.411 85.8765 107.411 85.8765 102.607 85.4335C102.992 84.2791 103.377 83.1248 103.773 81.9355C101.057 81.8888 98.3281 81.8888 95.6113 81.9355C95.6113 81.1659 95.6113 80.3963 95.6113 79.6035C98.8411 79.172 102.036 79.0788 105.289 78.9505C106.852 78.694 106.852 78.694 108.437 78.4375C109.592 77.2831 110.746 76.1288 111.935 74.9395Z" fill="#CCCBDF"/>
<path d="M90.1424 0.0236074C92.8475 0.163527 92.8475 0.163527 95.6109 0.315107C95.6109 0.699887 95.6109 1.08467 95.6109 1.48111C94.0485 1.64435 92.4861 1.81925 90.877 1.99415C88.6033 2.32063 88.6033 2.32063 86.2829 2.64711C86.6677 3.41667 87.0525 4.18623 87.4489 4.97911C86.0731 5.15401 86.0731 5.15401 84.6739 5.34057C83.6711 5.60875 82.6567 5.87693 81.6189 6.14511C81.4207 7.11289 81.2342 8.06901 81.0359 9.06011C80.8377 10.0162 80.6512 10.984 80.4529 11.9751C77.6079 13.0012 77.6079 13.0012 74.6229 13.1411C73.8534 12.7563 73.0838 12.3715 72.2909 11.9751C71.4747 13.899 70.7052 15.8462 69.9589 17.8051C68.8046 18.3764 68.8046 18.3764 67.6269 18.9711C66.5542 16.4292 66.5542 16.4292 66.4609 13.1411C68.688 10.6575 68.688 10.6575 71.8479 8.33719C73.387 7.17119 73.387 7.17119 74.9611 5.99353C75.9988 5.27061 77.0482 4.54769 78.1209 3.81311C79.0771 3.14849 80.0448 2.48387 81.0359 1.79593C84.3474 0.105227 86.4462 -0.0813326 90.1424 0.0236074Z" fill="#97A8D8"/>
<path d="M122.43 52.7852C122.814 53.5547 123.199 54.3243 123.596 55.1172C124.365 55.1172 125.135 55.1172 125.928 55.1172C126.802 58.6152 126.802 58.6152 127.094 62.1132C126.324 62.1132 125.554 62.1132 124.762 62.1132C123.992 63.6523 123.222 65.1914 122.43 66.7772C121.275 67.5467 120.121 68.3163 118.932 69.1092C117.392 68.7244 115.853 68.3396 114.268 67.9432C115.865 63.7922 115.865 63.7922 117.766 59.7812C116.996 59.7812 116.226 59.7812 115.434 59.7812C115.818 58.242 116.203 56.7029 116.6 55.1172C119.515 53.5197 119.515 53.5197 122.43 52.7852Z" fill="#AFBDED"/>
<path d="M129.426 37.627C130.195 38.7813 130.965 39.9356 131.758 41.125C131.758 42.2793 131.758 43.4336 131.758 44.623C132.527 44.623 133.297 44.623 134.09 44.623C133.705 43.4686 133.32 42.3143 132.924 41.125C135.256 42.291 137.588 43.457 139.92 44.623C140.304 43.8534 140.689 43.0838 141.086 42.291C141.47 43.8301 141.855 45.3692 142.252 46.955C137.459 49.182 133.495 49.287 128.26 49.287C128.26 48.5174 128.26 47.7478 128.26 46.955C127.49 46.955 126.721 46.955 125.928 46.955C125.928 47.7245 125.928 48.4941 125.928 49.287C125.158 48.9022 124.389 48.5174 123.596 48.121C123.596 46.9666 123.596 45.8123 123.596 44.623C126.359 40.6935 126.359 40.6935 129.426 37.627Z" fill="#A6B9F2"/>
<path d="M113.102 30.6309C114.256 31.0156 115.41 31.4004 116.6 31.7969C116.984 32.5664 117.369 33.336 117.766 34.1289C119.118 33.884 120.459 33.6508 121.847 33.4059C123.864 33.1844 123.864 33.1844 125.928 32.9629C126.312 34.502 126.697 36.0411 127.094 37.6269C125.939 38.7812 124.785 39.9355 123.596 41.1249C114.268 41.1249 114.268 41.1249 109.604 39.9589C110.408 35.8779 110.408 35.8779 111.936 31.7969C112.32 31.4121 112.705 31.0273 113.102 30.6309Z" fill="#A5B8F2"/>
<path d="M107.271 101.758C108.437 104.09 108.437 104.09 108.437 107.588C113.393 108.882 118.407 108.952 123.514 109.08C125.018 109.127 126.522 109.174 128.073 109.209C131.233 109.302 134.404 109.383 137.564 109.465C139.814 109.523 139.814 109.523 142.1 109.593C143.464 109.628 144.84 109.663 146.251 109.698C147.731 109.803 147.731 109.803 149.247 109.92C149.247 110.305 149.247 110.689 149.247 111.086C142.869 111.401 136.468 111.307 130.078 111.307C128.306 111.319 126.522 111.331 124.691 111.342C112.565 111.366 100.578 110.818 88.6152 108.754C88.6152 108.369 88.6152 107.984 88.6152 107.588C93.1393 107.693 97.6517 107.903 102.164 108.113C104.111 107.856 104.111 107.856 106.105 107.588C107.411 104.731 107.411 104.731 107.271 101.758Z" fill="#2A3D6D"/>
<path d="M81.6191 81.9355C84.8373 85.1537 86.2948 87.3458 88.2537 91.3335C88.7551 92.3596 89.2681 93.3857 89.7928 94.4351C90.9471 97.0935 90.9471 97.0935 90.9471 99.4255C92.941 98.1663 94.9349 96.8953 96.9287 95.636C98.0947 94.9015 99.2607 94.1552 100.462 93.3973C102.992 91.7649 105.464 90.0742 107.924 88.3485C108.869 87.7655 109.801 87.1942 110.769 86.5995C111.539 86.9843 112.308 87.3691 113.101 87.7655C111.947 88.1503 110.792 88.5351 109.603 88.9315C109.603 89.7011 109.603 90.4707 109.603 91.2635C105.091 94.3301 105.091 94.3301 100.275 97.0935C99.5056 97.0935 98.736 97.0935 97.9431 97.0935C97.5584 98.2479 97.1736 99.4022 96.7771 100.592C95.6228 101.361 94.4685 102.131 93.2791 102.924C91.74 102.539 90.2009 102.154 88.6151 101.758C86.9244 98.4927 86.9244 98.4927 85.4786 94.4001C85.0005 93.0592 84.5108 91.7183 84.0094 90.3307C83.1 87.5673 82.3304 84.7573 81.6191 81.9355Z" fill="#474B69"/>
<path d="M131.758 106.421C134.696 106.305 137.634 106.27 140.573 106.27C142.998 106.27 142.998 106.27 145.458 106.27C146.717 106.316 147.965 106.363 149.248 106.421C149.248 106.806 149.248 107.191 149.248 107.587C151.58 107.669 153.912 107.68 156.244 107.657C157.538 107.645 158.844 107.634 160.185 107.634C161.689 107.61 161.689 107.61 163.24 107.587C157.829 110.292 154.693 110.199 148.688 110.187C147.732 110.187 146.776 110.187 145.796 110.187C143.802 110.187 141.797 110.176 139.791 110.164C136.713 110.141 133.623 110.141 130.545 110.141C119.666 110.106 119.666 110.106 115.434 109.919C115.434 109.534 115.434 109.15 115.434 108.753C117.929 108.508 120.436 108.322 122.943 108.17C125.496 108.019 128.05 107.832 130.592 107.587C130.976 107.202 131.361 106.818 131.758 106.421Z" fill="#384E8E"/>
<path d="M193.555 53.9512C194.324 54.336 195.094 54.7207 195.887 55.1172C195.817 56.2715 195.747 57.4259 195.665 58.6152C195.735 59.7695 195.817 60.9239 195.887 62.1132C197.822 62.5446 199.769 62.941 201.717 63.2792C201.717 65.2031 201.717 67.127 201.717 69.1092C199.758 71.8843 199.758 71.8843 197.204 74.4261C195.945 75.7321 195.945 75.7321 194.662 77.0613C193.531 77.7376 193.531 77.7376 192.389 78.4372C191.619 76.8981 190.85 75.3589 190.057 73.7732C191.596 73.3884 193.135 73.0036 194.721 72.6072C194.336 71.4528 193.951 70.2985 193.555 69.1092C194.709 68.7244 195.863 68.3396 197.053 67.9432C197.053 67.1736 197.053 66.4041 197.053 65.6112C194.161 64.8416 194.161 64.8416 191.223 64.4452C192.377 64.0604 193.531 63.6756 194.721 63.2792C194.429 58.5452 194.429 58.5452 193.555 53.9512Z" fill="#A0B1E8"/>
<path d="M93.2798 57.4503C97.2558 57.287 101.034 57.905 104.94 58.6163C103.401 59.001 101.862 59.3858 100.276 59.7823C101.372 62.1492 102.561 64.4696 103.774 66.7783C104.287 70.5678 104.287 70.5678 103.774 73.7743C101.465 74.9286 101.465 74.9286 99.1098 76.1063C98.8882 71.1508 98.8882 71.1508 99.1098 65.6123C98.725 64.8427 98.3402 64.0731 97.9438 63.2803C98.3285 62.1259 98.7133 60.9716 99.1098 59.7823C97.9554 60.167 96.8011 60.5518 95.6118 60.9483C94.7489 64.4696 94.7489 64.4696 94.4458 67.9443C92.1138 63.2803 92.1138 63.2803 91.8223 60.0038C92.3003 59.1643 92.79 58.3131 93.2798 57.4503Z" fill="#9DA8D2"/>
<path d="M59.0915 62.346C64.5251 63.6635 67.9415 65.6341 72.2906 69.1088C71.9059 69.8783 71.5211 70.6479 71.1246 71.4408C69.5855 70.2864 68.0464 69.1321 66.4606 67.9428C64.5367 67.9428 62.6128 67.9428 60.6306 67.9428C60.6306 67.558 60.6306 67.1732 60.6306 66.7768C57.0627 66.8467 53.5064 67.01 49.9268 67.1965C48.8424 67.0566 47.758 66.9283 46.6386 66.7768C45.8691 65.2376 45.0995 63.6985 44.3066 62.1128C49.4604 60.3987 53.8095 61.4831 59.0915 62.346Z" fill="#384D8C"/>
<path d="M110.769 10.8088C114.571 10.5873 117.929 10.6456 121.707 10.9604C122.721 11.007 123.747 11.0653 124.796 11.1236C129.484 11.4384 132.457 11.66 136.421 14.3068C134.882 14.6916 133.343 15.0764 131.757 15.4728C131.757 14.7032 131.757 13.9337 131.757 13.1408C126.499 13.4323 126.499 13.4323 121.263 14.3068C121.263 14.6916 121.263 15.0764 121.263 15.4728C119.724 15.4028 118.185 15.3329 116.599 15.2513C114.291 15.3679 114.291 15.3679 111.935 15.4728C111.935 17.0119 111.935 18.551 111.935 20.1368C110.012 20.1368 108.088 20.1368 106.105 20.1368C106.49 18.5977 106.875 17.0586 107.271 15.4728C108.041 15.4728 108.811 15.4728 109.603 15.4728C109.988 13.9337 110.373 12.3946 110.769 10.8088ZM103.773 21.3028C104.928 21.8741 104.928 21.8741 106.105 22.4688C105.721 24.0079 105.336 25.547 104.939 27.1328C104.555 25.2089 104.17 23.285 103.773 21.3028Z" fill="#98A9DE"/>
<path d="M66.4609 53.9512C67.2305 54.7207 68 55.4903 68.7929 56.2832C69.5625 55.8984 70.332 55.5136 71.1249 55.1172C71.5097 55.8867 71.8945 56.6563 72.2909 57.4492C73.4453 57.0644 74.5996 56.6796 75.7889 56.2832C76.4652 57.146 77.1298 58.0089 77.8294 58.9067C77.9693 60.4924 77.9693 60.4924 78.1209 62.1132C73.1654 64.3752 73.1654 64.3752 67.6269 65.6112C66.8574 64.8416 66.0878 64.0721 65.2949 63.2792C65.2949 59.9677 65.7613 57.1693 66.4609 53.9512Z" fill="#BEC7EF"/>
<path d="M177.232 45.7902C178.771 46.5597 180.31 47.3293 181.896 48.1222C180.555 48.0056 179.202 47.9006 177.815 47.784C176.089 47.6558 174.352 47.5275 172.568 47.3993C170.831 47.2593 169.105 47.1194 167.321 46.9795C165.304 46.9678 165.304 46.9678 163.24 46.9562C163.24 47.7257 163.24 48.4953 163.24 49.2882C157.62 51.0255 152.746 51.6202 146.916 51.6202C146.916 52.3897 146.916 53.1593 146.916 53.9522C145.377 53.5674 143.838 53.1826 142.252 52.7862C153.819 46.5831 164.184 44.6941 177.232 45.7902Z" fill="#8C98BF"/>
<path d="M36.1444 55.1168C39.211 54.7553 39.211 54.7553 43.1404 55.1168C45.0993 56.2478 47.0465 57.4255 48.9704 58.6148C51.454 59.2328 51.454 59.2328 53.9959 59.8508C56.1297 60.3988 56.1297 60.3988 58.2984 60.9468C58.2984 61.7164 58.2984 62.4859 58.2984 63.2788C53.3896 63.2438 48.5157 62.4393 43.6535 61.8213C42.2543 61.6581 40.8551 61.5065 39.4092 61.3432C38.0917 61.18 36.7741 61.0168 35.4099 60.8535C34.1856 60.7019 32.9613 60.562 31.6903 60.3988C30.431 60.0956 30.431 60.0956 29.1484 59.7808C29.5332 59.0112 29.918 58.2417 30.3144 57.4488C32.6464 57.4488 34.9784 57.4488 37.3104 57.4488C36.9257 56.6792 36.5409 55.9097 36.1444 55.1168Z" fill="#283C74"/>
<path d="M90.9472 79.6035C94.0954 79.6851 94.0954 79.6851 97.5818 80.4081C99.3191 80.7345 99.3191 80.7345 101.091 81.0727C102.421 81.5041 102.421 81.5041 103.773 81.9355C103.773 82.7051 103.773 83.4746 103.773 84.2675C106.478 84.7456 109.207 85.142 111.935 85.4335C109.895 87.8355 109.895 87.8355 107.271 90.0975C102.607 88.9315 102.607 88.9315 97.9432 86.5995C98.7128 85.4452 99.4823 84.2908 100.275 83.1015C96.0426 83.1015 91.8101 83.1015 87.4492 83.1015C88.6036 81.9472 89.7579 80.7928 90.9472 79.6035Z" fill="#B39E92"/>
<path d="M109.603 71.4414C111.143 71.4414 112.682 71.4414 114.267 71.4414C114.267 72.211 114.267 72.9805 114.267 73.7734C115.783 73.7268 117.299 73.6801 118.862 73.6335C120.424 73.6801 121.986 73.7268 123.595 73.7734C123.98 75.3125 124.365 76.8516 124.761 78.4374C121.998 80.0465 121.998 80.0465 118.931 80.7694C118.547 79.9998 118.162 79.2303 117.765 78.4374C116.611 78.0526 115.457 77.6678 114.267 77.2714C114.267 76.5018 114.267 75.7323 114.267 74.9394C112.728 75.3242 111.189 75.709 109.603 76.1054C109.219 77.2597 108.834 78.4141 108.437 79.6034C107.668 79.2186 106.898 78.8338 106.105 78.4374C107.411 74.8694 107.411 74.8694 109.603 71.4414Z" fill="#C1C6E8"/>
<path d="M100.275 59.7815C103.703 59.3384 103.703 59.3384 107.271 59.7815C108.519 63.536 108.694 66.3461 108.437 70.2755C107.668 70.2755 106.898 70.2755 106.105 70.2755C106.105 71.8146 106.105 73.3538 106.105 74.9395C104.566 75.3243 103.027 75.7091 101.441 76.1055C101.826 75.336 102.211 74.5664 102.607 73.7735C102.899 70.3222 102.899 70.3222 102.607 66.7775C101.838 65.6232 101.068 64.4688 100.275 63.2795C100.275 62.1252 100.275 60.9708 100.275 59.7815Z" fill="#BEC8EE"/>
<path d="M134.09 15.4746C137.809 15.6262 137.809 15.6262 142.252 16.6406C145.61 19.9171 145.61 19.9171 148.082 23.6366C148.467 25.1757 148.851 26.7148 149.248 28.3006C147.709 27.9158 146.17 27.531 144.584 27.1346C144.199 25.9803 143.814 24.8259 143.418 23.6366C139.582 21.7244 137.028 20.8265 132.924 20.1386C133.693 19.369 134.463 18.5995 135.256 17.8066C134.871 17.037 134.486 16.2675 134.09 15.4746Z" fill="#96A7D8"/>
<path d="M136.422 46.9551C137.961 47.7246 139.5 48.4942 141.086 49.2871C139.931 50.8262 138.777 52.3653 137.588 53.9511C137.203 55.4902 136.818 57.0293 136.422 58.6151C135.652 58.6151 134.883 58.6151 134.09 58.6151C134.09 59.3846 134.09 60.1542 134.09 60.9471C133.32 60.9471 132.551 60.9471 131.758 60.9471C130.988 62.4862 130.219 64.0253 129.426 65.6111C128.656 65.6111 127.887 65.6111 127.094 65.6111C129.426 60.9471 129.426 60.9471 131.828 58.6151C132.574 57.8455 133.32 57.076 134.09 56.2831C134.475 54.744 134.859 53.2048 135.256 51.6191C132.376 52.0155 132.376 52.0155 129.426 52.7851C129.426 52.0155 129.426 51.246 129.426 50.4531C131.35 49.6136 133.285 48.844 135.256 48.1211C135.641 47.7363 136.025 47.3515 136.422 46.9551Z" fill="#8D98C8"/>
<path d="M145.75 30.6309C146.904 30.6309 148.059 30.6309 149.248 30.6309C149.155 35.5164 148.199 38.5946 145.82 42.8739C145.027 43.83 144.234 44.7978 143.418 45.7889C142.648 45.4041 141.879 45.0193 141.086 44.6229C141.086 38.7929 141.086 38.7929 143.196 34.3504C144.036 33.1261 144.887 31.8901 145.75 30.6309Z" fill="#A1B2E6"/>
<path d="M32.6465 72.6074C35.4915 72.829 35.4915 72.829 38.4765 73.7734C38.8613 75.3125 39.246 76.8517 39.6425 78.4374C40.412 78.4374 41.1816 78.4374 41.9745 78.4374C42.3593 77.2831 42.744 76.1287 43.1405 74.9394C43.5253 76.4785 43.91 78.0177 44.3065 79.6034C45.8456 79.9882 47.3847 80.373 48.9705 80.7694C48.9705 82.6933 48.9705 84.6172 48.9705 86.5994C49.74 86.5994 50.5096 86.5994 51.3025 86.5994C50.9177 87.369 50.5329 88.1385 50.1365 88.9314C46.93 86.2846 43.8751 83.5795 40.8085 80.7694C39.2577 79.4518 37.7069 78.1343 36.1445 76.84C34.9901 75.8256 33.8358 74.8112 32.6465 73.7734C32.6465 73.3886 32.6465 73.0039 32.6465 72.6074ZM43.1405 73.7734C46.6385 74.9394 46.6385 74.9394 46.6385 74.9394L43.1405 73.7734Z" fill="#34457D"/>
<path d="M102.607 46.9565C102.992 48.4957 103.377 50.0348 103.773 51.6205C103.004 52.3901 102.234 53.1597 101.441 53.9525C101.441 52.7982 101.441 51.6439 101.441 50.4545C100.672 50.4545 99.9021 50.4545 99.1093 50.4545C99.1093 51.9937 99.1093 53.5328 99.1093 55.1185C98.3397 55.1185 97.5701 55.1185 96.7773 55.1185C96.3925 54.349 96.0077 53.5794 95.6113 52.7865C95.2265 53.5561 94.8417 54.3257 94.4453 55.1185C93.2909 54.7338 92.1366 54.349 90.9473 53.9525C91.7168 53.9525 92.4864 53.9525 93.2793 53.9525C93.2326 52.8215 93.186 51.6905 93.1277 50.5245C93.186 49.3468 93.2326 48.1692 93.2793 46.9565C97.9433 45.7905 97.9433 45.7905 102.607 46.9565Z" fill="#B2BFEF"/>
<path d="M94.4459 59.7812C95.985 59.7812 97.5241 59.7812 99.1099 59.7812C100.136 62.0433 100.136 62.0433 100.276 65.6113C99.3314 71.2197 99.3314 71.2197 97.9439 76.1053C97.1743 76.1053 96.4047 76.1053 95.6119 76.1053C94.9706 72.5373 94.9706 72.5373 94.5974 67.9433C94.4459 66.4275 94.3059 64.9117 94.166 63.3492C94.2593 62.1715 94.3526 60.9939 94.4459 59.7812Z" fill="#C4CCF1"/>
<path d="M170.234 48.1211C171.972 48.5292 173.697 48.9373 175.481 49.3571C178.082 49.9051 178.082 49.9051 180.728 50.4531C180.728 49.6835 180.728 48.914 180.728 48.1211C183.352 48.3426 183.352 48.3426 186.558 49.2871C188.097 50.4414 189.637 51.5958 191.222 52.7851C182.419 54.4641 182.419 54.4641 177.697 53.03C175.155 51.9106 172.683 50.6047 170.234 49.2871C170.234 48.9023 170.234 48.5175 170.234 48.1211Z" fill="#9AABE0"/>
<path d="M77.608 65.6113C78.5408 65.9961 79.4852 66.3809 80.453 66.7773C81.5491 70.7884 81.5491 70.7884 81.619 74.9393C80.8495 75.7089 80.0799 76.4784 79.287 77.2713C75.6374 73.4818 75.6374 73.4818 72.291 69.1093C72.291 68.3398 72.291 67.5702 72.291 66.7773C74.623 65.6113 74.623 65.6113 77.608 65.6113Z" fill="#C7CDEE"/>
<path d="M177.232 67.9436C174.131 69.1329 171.017 70.2873 167.904 71.4416C166.971 71.7914 166.039 72.1412 165.071 72.491C162.541 73.3888 159.975 74.1701 157.41 74.9396C156.256 74.5548 155.101 74.1701 153.912 73.7736C168.755 65.8215 168.755 65.8215 177.232 67.9436Z" fill="#7E91CB"/>
<path d="M82.7851 56.2832C83.9395 56.2832 85.0938 56.2832 86.2831 56.2832C88.2537 58.9067 88.2537 58.9067 89.7811 62.1132C89.7811 63.6523 89.7811 65.1914 89.7811 66.7772C88.242 66.7772 86.7029 66.7772 85.1171 66.7772C83.0067 64.1537 83.0067 64.1537 81.6191 60.9472C82.0039 59.4081 82.3887 57.869 82.7851 56.2832Z" fill="#7384B6"/>
<path d="M62.9628 53.9512C64.1172 54.336 65.2715 54.7207 66.4608 55.1172C66.4608 57.0411 66.4608 58.965 66.4608 60.9472C66.8456 61.332 67.2304 61.7167 67.6268 62.1132C67.6268 63.2675 67.6268 64.4219 67.6268 65.6112C63.6158 64.8883 63.6158 64.8883 59.4648 63.2792C59.08 62.1248 58.6953 60.9705 58.2988 59.7812C59.0684 59.7812 59.8379 59.7812 60.6308 59.7812C60.6308 59.0116 60.6308 58.2421 60.6308 57.4492C61.4004 57.4492 62.1699 57.4492 62.9628 57.4492C62.9628 56.2948 62.9628 55.1405 62.9628 53.9512Z" fill="#B1BCE7"/>
<path d="M27.9824 22.4688C29.2067 22.9701 29.2067 22.9701 30.466 23.4948C33.8707 24.8824 33.8707 24.8824 37.7535 25.9668C38.7563 26.3515 39.7707 26.7363 40.8084 27.1328C40.4236 27.9023 40.0389 28.6719 39.6424 29.4648C40.7968 31.0039 41.9511 32.543 43.1404 34.1288C43.1404 34.8983 43.1404 35.6679 43.1404 36.4608C36.4942 33.1377 32.4715 28.2988 27.9824 22.4688Z" fill="#7D92D0"/>
<path d="M51.3027 88.9316C56.9345 89.8528 60.8873 90.5524 65.4463 94.1087C66.1576 95.0881 66.8805 96.0792 67.6267 97.0936C67.242 98.248 66.8572 99.4023 66.4607 100.592C63.3242 98.9709 63.3242 98.9709 59.4647 96.2891C58.1938 95.4263 56.9112 94.5518 55.6053 93.6539C52.4687 91.2636 52.4687 91.2636 51.3027 88.9316Z" fill="#37497C"/>
<path d="M185.392 83.1009C185.777 84.2553 186.162 85.4096 186.558 86.5989C182.99 87.3685 179.679 87.8582 176.064 88.208C175.05 88.3246 174.035 88.4529 172.986 88.5811C170.083 88.8843 170.083 88.8843 165.57 88.9309C165.955 87.7766 166.34 86.6222 166.736 85.4329C170.549 84.162 173.954 83.7655 177.953 83.3924C179.317 83.2525 180.682 83.1126 182.081 82.9727C183.177 83.0193 184.273 83.0543 185.392 83.1009Z" fill="#425891"/>
<path d="M69.959 39.959C72.8157 44.2382 74.9145 48.7973 77.1065 53.4379C77.538 54.3474 77.9694 55.2569 78.4125 56.2014C81.619 62.9991 81.619 62.9991 81.619 65.611C80.8494 65.611 80.0798 65.611 79.287 65.611C77.3397 61.7982 75.5441 58.0087 73.8184 54.1026C73.317 53.0065 72.8273 51.9105 72.3026 50.7911C71.055 47.9927 69.9123 45.1477 68.793 42.291C69.1777 41.5214 69.5625 40.7519 69.959 39.959Z" fill="#848FB8"/>
<path d="M111.935 74.9395C112.705 74.9395 113.475 74.9395 114.267 74.9395C114.267 75.709 114.267 76.4786 114.267 77.2715C115.807 77.6562 117.346 78.041 118.931 78.4375C118.931 79.5918 118.931 80.7461 118.931 81.9355C117.777 82.3202 116.623 82.705 115.433 83.1015C112.577 82.122 109.965 80.956 107.271 79.6035C109.312 77.2015 109.312 77.2015 111.935 74.9395Z" fill="#C9CDEF"/>
<path d="M89.7812 43.457C90.9356 43.8418 92.0899 44.2266 93.2792 44.623C93.7923 49.4386 93.7923 49.4386 93.2792 53.951C91.7401 53.5663 90.201 53.1815 88.6152 52.785C87.5891 49.357 87.5891 49.357 87.4492 45.789C88.2188 45.0195 88.9883 44.2499 89.7812 43.457Z" fill="#6F84B9"/>
<path d="M6.99609 23.6365C9.32809 23.5899 11.6601 23.5899 13.9921 23.6365C12.8378 24.2079 12.8378 24.2079 11.6601 24.8025C11.6601 25.5721 11.6601 26.3417 11.6601 27.1345C13.1992 27.5193 14.7383 27.9041 16.3241 28.3005C17.0587 31.2855 17.0587 31.2855 17.4901 34.1305C18.2597 34.1305 19.0292 34.1305 19.8221 34.1305C20.2069 35.2849 20.5917 36.4392 20.9881 37.6285C17.4435 36.5092 15.3913 35.5414 12.8028 32.813C12.1148 31.8802 11.4269 30.9357 10.7156 29.9796C10.0044 29.0351 9.30477 28.1023 8.58185 27.1345C8.05715 26.365 7.53245 25.5954 6.99609 24.8025C6.99609 24.4178 6.99609 24.033 6.99609 23.6365Z" fill="#93A4D7"/>
<path d="M111.936 67.9436C117.183 67.5006 117.183 67.5006 122.43 67.9436C122.43 69.098 122.43 70.2523 122.43 71.4416C123.584 71.8264 124.738 72.2112 125.928 72.6076C123.98 72.8642 122.045 73.109 120.098 73.3422C119.013 73.4705 117.929 73.6104 116.821 73.7503C115.982 73.7503 115.13 73.762 114.268 73.7736C114.268 73.0041 114.268 72.2345 114.268 71.4416C113.498 71.4416 112.728 71.4416 111.936 71.4416C111.936 70.2873 111.936 69.133 111.936 67.9436Z" fill="#C0C8F2"/>
<path d="M82.7852 81.9366C90.4458 81.4352 90.4458 81.4352 94.4452 81.9366C95.2147 82.7061 95.9843 83.4757 96.7772 84.2686C95.6228 85.9943 95.6228 85.9943 94.4452 87.7666C93.2442 87.1369 92.0432 86.519 90.8072 85.8777C89.6995 85.3413 88.5918 84.8166 87.4492 84.2686C87.4492 86.1925 87.4492 88.1164 87.4492 90.0986C83.9512 85.4346 83.9512 85.4346 82.7852 81.9366Z" fill="#AC9481"/>
<path d="M43.1406 44.623C44.6797 44.623 46.2188 44.623 47.8046 44.623C47.8046 45.3926 47.8046 46.1622 47.8046 46.955C48.9589 46.955 50.1133 46.955 51.3026 46.955C51.3026 47.7246 51.3026 48.4942 51.3026 49.287C52.0721 49.6718 52.8417 50.0566 53.6346 50.453C52.4802 50.453 51.3259 50.453 50.1366 50.453C50.1366 49.6835 50.1366 48.9139 50.1366 48.121C48.5975 48.121 47.0583 48.121 45.4726 48.121C45.8574 49.2754 46.2421 50.4297 46.6386 51.619C45.4842 51.619 44.3299 51.619 43.1406 51.619C41.9862 50.4647 40.8319 49.3104 39.6426 48.121C40.7969 46.9667 41.9513 45.8124 43.1406 44.623Z" fill="#A3B5EC"/>
<path d="M17.4883 36.4609C24.8807 39.1311 24.8807 39.1311 27.9823 41.1249C28.6352 44.9144 28.6352 44.9144 27.9823 48.1209C20.1118 41.7079 20.1118 41.7079 17.4883 36.4609Z" fill="#304370"/>
<path d="M8.162 7.3125C8.54678 8.85162 8.93156 10.3907 9.328 11.9765C5.31696 12.1281 5.31696 12.1281 1.166 11.9765C1.166 12.7461 1.166 13.5156 1.166 14.3085C2.32034 14.3085 3.47468 14.3085 4.664 14.3085C6.1215 17.002 6.1215 17.002 6.996 20.1385C6.61122 21.2928 6.22644 22.4472 5.83 23.6365C3.7895 20.9897 1.85394 18.2612 0 15.4745C0 13.9354 0 12.3963 0 10.8105C2.71678 10.7639 5.44522 10.7639 8.162 10.8105C8.162 9.65616 8.162 8.50182 8.162 7.3125Z" fill="#7988AF"/>
<path d="M96.7773 83.1016C97.9317 83.1016 99.086 83.1016 100.275 83.1016C99.8905 84.2559 99.5058 85.4102 99.1093 86.5996C100.625 87.4624 100.625 87.4624 102.176 88.3486C103.085 88.9316 103.995 89.5029 104.939 90.0976C103.785 91.2519 102.631 92.4062 101.441 93.5956C101.057 92.4412 100.672 91.2869 100.275 90.0976C98.7362 89.7128 97.1971 89.328 95.6113 88.9316C95.6813 85.9466 95.6813 85.9466 96.7773 83.1016Z" fill="#B4947A"/>
<path d="M152.746 73.7734C154.285 74.1582 155.824 74.543 157.41 74.9394C158.868 78.589 158.868 78.589 158.576 81.9354C153.982 81.7955 153.982 81.7955 149.248 80.7694C150.018 79.9999 150.787 79.2303 151.58 78.4374C151.195 77.2831 150.81 76.1288 150.414 74.9394C151.184 74.5547 151.953 74.1699 152.746 73.7734Z" fill="#A1B2E5"/>
<path d="M27.9824 42.291C31.4804 43.0256 31.4804 43.0256 34.9784 44.623C35.3632 46.1621 35.748 47.7013 36.1444 49.287C34.9901 49.6718 33.8357 50.0566 32.6464 50.453C31.1073 49.6835 29.5682 48.9139 27.9824 48.121C27.5976 46.9667 27.2128 45.8123 26.8164 44.623C27.2012 43.8535 27.586 43.0839 27.9824 42.291Z" fill="#395194"/>
<path d="M172.566 101.758C176.064 101.607 176.064 101.607 179.562 101.758C174.362 105.653 170.782 106.679 164.404 107.588C163.635 106.434 162.865 105.28 162.072 104.09C163.81 104.137 165.535 104.183 167.319 104.242C169.045 104.183 170.782 104.137 172.566 104.09C172.566 103.321 172.566 102.551 172.566 101.758Z" fill="#344783"/>
<path d="M200.551 81.9355C200.935 83.4747 201.32 85.0138 201.717 86.5995C200.562 87.1825 200.562 87.1825 199.385 87.7655C199.385 86.2264 199.385 84.6873 199.385 83.1015C198.23 83.1015 197.076 83.1015 195.887 83.1015C195.887 83.8711 195.887 84.6407 195.887 85.4335C191.806 86.961 191.806 86.961 187.725 87.7655C187.725 86.6112 187.725 85.4569 187.725 84.2675C192.365 82.2154 195.374 81.9355 200.551 81.9355Z" fill="#354479"/>
<path d="M166.736 73.7729C164.404 76.1049 164.404 76.1049 162.072 77.2709C162.457 78.4253 162.842 79.5796 163.238 80.7689C161.699 81.1537 160.16 81.5385 158.574 81.9349C157.408 78.0055 157.408 78.0055 157.408 73.7729C162.072 72.6069 162.072 72.6069 166.736 73.7729Z" fill="#ABBCF4"/>
<path d="M193.555 53.9512C194.324 54.336 195.094 54.7207 195.887 55.1172C195.817 56.2715 195.747 57.4259 195.665 58.6152C195.735 59.7695 195.817 60.9239 195.887 62.1132C197.822 62.5446 199.769 62.941 201.717 63.2792C201.717 65.2031 201.717 67.127 201.717 69.1092C200.947 67.9548 200.178 66.8005 199.385 65.6112C197.053 65.5645 194.721 65.5645 192.389 65.6112C192.004 64.8416 191.619 64.0721 191.223 63.2792C192.377 63.2792 193.531 63.2792 194.721 63.2792C194.429 58.5919 194.429 58.5919 193.555 53.9512Z" fill="#92A0CE"/>
<path d="M110.77 46.9551C111.924 46.9551 113.078 46.9551 114.268 46.9551C114.781 51.5491 114.781 51.5491 114.268 56.2831C112.728 56.6679 111.189 57.0526 109.604 57.4491C109.673 52.272 109.673 52.272 110.77 46.9551Z" fill="#6C80B1"/>
<path d="M113.102 22.4688C113.487 22.4688 113.871 22.4688 114.268 22.4688C114.933 27.4942 113.778 31.1321 111.936 35.7378C111.166 37.5335 110.397 39.3291 109.604 41.1248C108.438 36.4608 108.438 36.4607 109.044 33.2426C109.371 32.1116 109.709 30.9922 110.035 29.8262C110.362 28.6952 110.688 27.5642 111.015 26.3865C111.936 23.6348 111.936 23.6348 113.102 22.4688Z" fill="#7488C4"/>
<path d="M80.4531 78.4375C83.2398 82.6234 84.1493 86.3546 85.1171 91.2635C84.3475 91.2635 83.578 91.2635 82.7851 91.2635C82.4003 90.4939 82.0155 89.7244 81.6191 88.9315C80.08 88.9315 78.5408 88.9315 76.9551 88.9315C78.4126 83.6845 78.4126 83.6845 80.4531 78.4375Z" fill="#425394"/>
<path d="M118.932 60.9473C120.086 61.332 121.24 61.7168 122.43 62.1133C122.43 63.6524 122.43 65.1915 122.43 66.7773C121.275 67.5468 120.121 68.3164 118.932 69.1093C117.392 68.7245 115.853 68.3397 114.268 67.9433C116.087 64.3053 116.087 64.3053 118.932 60.9473Z" fill="#7080B0"/>
<path d="M74.6229 6.14648C75.3925 6.53126 76.1621 6.91604 76.9549 7.31248C75.4741 10.0992 75.4741 10.0992 73.1654 13.434C72.4192 14.5417 71.6613 15.661 70.8917 16.8037C70.1921 17.515 69.5042 18.2379 68.7929 18.9725C68.0234 17.8181 67.2538 16.6638 66.4609 15.4745C66.4609 14.7049 66.4609 13.9354 66.4609 13.1425C70.3904 9.42294 70.3904 9.42294 74.6229 6.14648Z" fill="#94A4D2"/>
<path d="M193.555 88.9316C194.709 88.9316 195.863 88.9316 197.053 88.9316C196.668 90.086 196.283 91.2403 195.887 92.4296C191.223 95.8577 191.223 95.8577 186.559 98.2596C186.174 96.7205 185.789 95.1814 185.393 93.5956C187.316 93.5956 189.24 93.5956 191.223 93.5956C191.223 92.8261 191.223 92.0565 191.223 91.2636C191.992 91.2636 192.762 91.2636 193.555 91.2636C193.555 90.4941 193.555 89.7245 193.555 88.9316Z" fill="#384A82"/>
<path d="M83.9511 93.5957C86.2831 95.9277 86.2831 95.9277 87.3092 99.4957C87.3559 100.627 87.4025 101.758 87.4491 102.924C85.91 103.308 84.3709 103.693 82.7851 104.09C82.4004 102.551 82.0156 101.011 81.6191 99.4257C82.3887 99.4257 83.1583 99.4257 83.9511 99.4257C83.9511 97.5018 83.9511 95.5779 83.9511 93.5957Z" fill="#3550A0"/>
<path d="M152.746 81.9355C154.67 81.9355 156.594 81.9355 158.576 81.9355C159.73 83.4747 160.885 85.0138 162.074 86.5995C164.01 87.0426 165.945 87.4507 167.904 87.7655C167.904 88.5351 167.904 89.3047 167.904 90.0975C164.558 90.5406 164.558 90.5406 160.908 90.0975C160.139 88.5584 159.369 87.0193 158.576 85.4335C155.603 84.0343 155.603 84.0343 152.746 83.1015C152.746 82.7168 152.746 82.332 152.746 81.9355Z" fill="#344987"/>
<path d="M72.291 69.1094C76.1504 71.8845 76.1504 71.8845 79.287 74.9394C78.1326 75.5224 78.1326 75.5224 76.955 76.1054C76.5702 77.2597 76.1854 78.4141 75.789 79.6034C75.6957 78.6706 75.5907 77.7261 75.4975 76.7583C75.066 75.2775 75.066 75.2775 74.623 73.7734C73.0838 73.3886 71.5447 73.0038 69.959 72.6074C69.5742 71.8378 69.1894 71.0683 68.793 70.2754C69.9473 69.8906 71.1016 69.5058 72.291 69.1094Z" fill="#425992"/>
<path d="M45.4726 27.1328C46.2422 28.6719 47.0117 30.2111 47.8046 31.7968C47.0351 33.3359 46.2655 34.8751 45.4726 36.4608C45.8574 37.6152 46.2422 38.7695 46.6386 39.9588C45.0995 39.1893 43.5604 38.4197 41.9746 37.6268C41.4616 33.5458 41.4616 33.5458 41.9746 29.4648C43.129 28.6953 44.2833 27.9257 45.4726 27.1328Z" fill="#9BB1EC"/>
<path d="M25.6504 20.1385C30.2444 19.847 30.2444 19.847 34.9784 20.1385C33.8241 20.7099 33.8241 20.7099 32.6464 21.3045C32.6464 22.0741 32.6464 22.8437 32.6464 23.6365C33.416 24.0213 34.1855 24.4061 34.9784 24.8025C32.2616 24.8025 29.5332 24.8025 26.8164 24.8025C26.4316 23.2634 26.0468 21.7243 25.6504 20.1385Z" fill="#9BAEEF"/>
</svg>
