<svg width="109" height="93" viewBox="0 0 109 93" fill="none" xmlns="http://www.w3.org/2000/svg">
<path d="M72.1066 1.50045C82.5306 4.98679 89.7249 11.3765 97.1523 19.3053C105.909 29.2629 105.909 29.2629 107.646 34.4633C107.879 38.0546 108.019 41.5875 108.089 45.1788C108.136 47.0911 108.194 49.0033 108.253 50.9855C107.646 56.6173 107.646 56.6173 104.941 61.7593C99.4959 69.0468 92.4883 74.7369 84.3263 78.7713C78.5896 81.0333 72.7596 82.8639 66.8363 84.6013C64.5159 85.3009 64.5159 85.3009 62.1606 86.0005C52.7976 88.5307 43.9127 89.6967 34.2582 89.7783C33.2671 89.79 32.276 89.8016 31.25 89.8133C23.7992 89.7084 17.771 88.4258 10.8683 85.7673C8.02325 83.0738 8.02325 83.0738 6.20429 80.0772C5.57465 79.0978 4.95667 78.1183 4.31537 77.1039C1.03891 70.9941 -0.138755 66.2718 0.0128248 59.2175C1.20214 46.8695 5.22485 35.466 12.0343 25.1353C19.7182 14.6529 30.1189 8.82293 41.5807 3.16783C50.967 -0.936486 62.2189 -0.551706 72.1066 1.50045Z" fill="#9FB4F0"/>
<path d="M30.6903 35.6289C31.4598 36.0137 32.2294 36.3985 33.0223 36.7949C31.8679 37.9492 30.7136 39.1036 29.5243 40.2929C32.1944 43.3478 32.1944 43.3478 35.3543 46.1229C35.3543 46.8925 35.3543 47.662 35.3543 48.4549C36.1238 48.4549 36.8934 48.4549 37.6863 48.4549C39.6451 51.8363 40.9277 55.2877 42.3503 58.9489C41.5807 58.9489 40.8111 58.9489 40.0183 58.9489C40.0183 60.488 40.0183 62.0271 40.0183 63.6129C41.1726 63.6129 42.3269 63.6129 43.5163 63.6129C43.5163 64.3825 43.5163 65.152 43.5163 65.9449C46.2097 65.6068 46.2097 65.6068 49.3463 64.7789C50.4306 64.5574 51.515 64.3475 52.6227 64.1259C53.4622 63.951 54.3134 63.7878 55.1763 63.6129C53.2873 65.9915 51.3401 68.3235 49.3463 70.6089C48.5767 70.6089 47.8071 70.6089 47.0143 70.6089C46.5012 73.2674 46.5012 73.2674 46.5012 76.4389C46.4546 77.5233 46.4079 78.6077 46.3613 79.7154C46.5828 80.5549 46.7927 81.4061 47.0143 82.2689C48.9382 82.2689 50.8621 82.2689 52.8443 82.2689C52.8443 82.6537 52.8443 83.0385 52.8443 83.4349C51.6899 83.4116 50.5356 83.3883 49.3463 83.3649C48.1919 83.3883 47.0376 83.4116 45.8483 83.4349C45.8483 84.2045 45.8483 84.974 45.8483 85.7669C43.5279 86.5831 41.1959 87.3643 38.8523 88.0989C38.8523 88.4837 38.8523 88.8685 38.8523 89.2649C30.3988 89.8945 21.5138 90.0694 13.4218 87.2944C9.21253 84.7758 6.90386 81.1845 4.30368 77.1035C1.49362 71.8332 0.0594342 67.8805 0.152714 61.8639C0.164374 60.2548 0.164375 60.2548 0.176035 58.6224C0.374255 55.4975 0.677415 52.6408 1.54025 49.6209C2.30981 49.6209 3.07937 49.6209 3.87225 49.6209C4.25703 48.0818 4.64181 46.5427 5.03825 44.9569C5.80781 44.9569 6.57737 44.9569 7.37025 44.9569C7.75503 44.1873 8.13981 43.4178 8.53625 42.6249C12.0692 43.686 15.5672 44.8636 19.0303 46.1229C20.1846 46.5077 21.3389 46.8925 22.5283 47.2889C22.913 45.7498 23.2978 44.2107 23.6943 42.6249C27.1223 38.7654 27.1223 38.7654 30.6903 35.6289Z" fill="#A9BBF1"/>
<path d="M2.70655 54.2852C7.81363 54.4367 7.81363 54.4367 13.2006 55.4512C14.3549 56.2207 15.5092 56.9903 16.6986 57.7832C16.6986 58.5527 16.6986 59.3223 16.6986 60.1152C17.4681 60.1152 18.2377 60.1152 19.0306 60.1152C19.0306 60.8847 19.0306 61.6543 19.0306 62.4472C20.5697 62.4472 22.1088 62.4472 23.6946 62.4472C27.0293 68.1839 28.6501 72.638 28.72 79.2842C28.3586 84.6012 28.3586 84.6012 27.1926 86.9332C29.5129 87.3762 31.8449 87.761 34.1886 88.0992C34.1886 88.4839 34.1886 88.8687 34.1886 89.2652C25.9799 89.7316 18.3426 89.4984 10.8686 85.7672C7.30059 82.1292 7.30059 82.1292 5.03855 77.6052C4.54883 74.1188 4.14073 70.6208 3.87255 67.1112C3.10299 67.1112 2.33343 67.1112 1.54055 67.1112C1.27237 62.4588 1.57553 58.8209 2.70655 54.2852Z" fill="#C7CBED"/>
<path d="M7.37024 42.625C10.4951 43.3129 13.6083 44.1058 16.6982 44.957C19.8931 45.7732 19.8931 45.7732 22.5282 46.123C23.2978 45.7382 24.0674 45.3534 24.8602 44.957C25.6998 48.4433 26.4693 51.9413 27.1922 55.451C28.125 58.8324 28.125 58.8324 29.5242 61.281C30.6786 61.6658 31.8329 62.0506 33.0222 62.447C34.7479 69.2215 33.8268 75.4362 33.0222 82.269C33.0222 83.4233 33.0222 84.5777 33.0222 85.767C31.0983 85.767 29.1744 85.767 27.1922 85.767C26.7492 83.2018 26.7492 83.2018 27.0523 79.7971C27.2739 75.2264 27.2855 73.1509 25.4432 68.86C24.8719 67.9039 24.2889 66.9361 23.6942 65.945C23.6942 64.7907 23.6942 63.6363 23.6942 62.447C22.1551 62.447 20.616 62.447 19.0302 62.447C19.0302 61.6774 19.0302 60.9079 19.0302 60.115C18.2607 60.115 17.4911 60.115 16.6982 60.115C16.6982 59.3454 16.6982 58.5759 16.6982 57.783C10.3669 56.069 10.3669 56.069 3.87224 55.451C2.96276 58.0978 2.96276 58.0978 2.41474 61.281C2.1932 62.3654 1.97166 63.4498 1.73846 64.5575C1.68016 65.397 1.6102 66.2482 1.54024 67.111C2.3098 67.111 3.07936 67.111 3.87224 67.111C4.6418 68.6501 5.41136 70.1892 6.20424 71.775C5.81946 73.3141 5.43468 74.8532 5.03824 76.439C1.54024 71.775 1.54024 71.775 0.374236 68.277C0.269296 66.1899 0.222656 64.1027 0.222656 62.0156C0.222656 60.9195 0.222656 59.8235 0.222656 58.7041C0.374236 55.5326 0.665736 52.6759 1.54024 49.621C2.3098 49.621 3.07936 49.621 3.87224 49.621C4.25702 48.0819 4.6418 46.5428 5.03824 44.957C5.8078 44.957 6.57736 44.957 7.37024 44.957C7.37024 44.1874 7.37024 43.4179 7.37024 42.625Z" fill="#B5C2F0"/>
<path d="M57.5075 60.1152C59.0467 60.5 60.5858 60.8848 62.1715 61.2812C62.5563 61.666 62.9411 62.0508 63.3375 62.4472C63.186 66.948 62.9528 71.4371 62.6962 75.9262C62.9061 77.2438 63.116 78.573 63.3375 79.9372C66.7423 81.8028 66.7423 81.8028 70.3335 82.2692C66.0427 85.1259 62.2415 85.8955 57.216 87.0848C55.502 87.4929 53.788 87.901 52.0273 88.3324C47.4566 89.1836 43.4806 89.6384 38.8515 89.2652C38.4668 88.4957 38.082 87.7261 37.6855 86.9332C38.9798 86.77 40.2857 86.5951 41.615 86.4202C43.0142 86.2103 44.4134 85.9888 45.8475 85.7672C47.1418 81.8728 46.9086 79.3426 46.6521 75.2732C46.5821 71.4954 46.5821 71.4954 47.0135 68.2772C50.5815 65.8053 50.5815 65.8053 54.0095 64.7792C53.6248 64.0097 53.24 63.2401 52.8435 62.4472C54.3827 61.6777 55.9218 60.9081 57.5075 60.1152Z" fill="#A1B5F1"/>
<path d="M106.481 56.6172C106.866 56.6172 107.251 56.6172 107.647 56.6172C108.382 60.6982 108.382 60.6982 107.647 65.9452C103.764 71.6702 98.2142 74.7368 92.151 77.8151C70.1486 87.9942 48.0063 93.7076 23.6952 91.5972C18.3432 89.8249 18.3432 89.8249 14.3672 88.0992C15.1367 87.7144 15.9063 87.3296 16.6992 86.9332C17.4804 87.0964 18.25 87.2597 19.0545 87.4229C34.9121 90.5128 51.5742 88.0059 66.8372 83.4352C68.4113 82.9688 69.997 82.514 71.6294 82.036C83.9191 78.1998 94.005 73.0461 102.983 63.6132C105.21 59.847 105.21 59.847 106.481 56.6172Z" fill="#4C5882"/>
<path d="M56.343 16.9746C57.4974 17.3594 58.6517 17.7442 59.841 18.1406C58.5818 18.7353 57.3341 19.3299 56.0399 19.9479C43.8668 25.9994 34.0841 32.4241 24.861 42.6266C24.0915 44.1657 23.3219 45.7048 22.529 47.2906C18.9378 47.0807 15.8828 45.8564 12.4665 44.7371C11.1722 44.4222 9.87793 44.1191 8.53703 43.7926C4.84081 45.9264 4.84081 45.9264 2.70703 49.6226C3.27837 44.6321 3.93133 41.344 6.20503 36.7966C9.20165 36.8083 9.20165 36.8083 12.688 37.6012C14.4253 37.9626 14.4253 37.9626 16.1977 38.3357C19.031 39.1286 19.031 39.1286 20.197 40.2946C20.5818 39.525 20.9666 38.7555 21.363 37.9626C22.9022 37.5778 24.4413 37.193 26.027 36.7966C28.3241 34.8377 30.6211 32.8788 32.8715 30.8617C40.1007 24.3904 47.12 20.0528 56.343 16.9746Z" fill="#A8B6E6"/>
<path d="M1.54142 58.9492C3.08054 60.1036 4.61966 61.2579 6.20542 62.4472C6.20542 63.2168 6.20542 63.9863 6.20542 64.7792C6.97498 64.0097 7.74454 63.2401 8.53742 62.4472C8.9222 63.2168 9.30698 63.9863 9.70342 64.7792C10.473 64.7792 11.2425 64.7792 12.0354 64.7792C12.0354 65.5488 12.0354 66.3183 12.0354 67.1112C13.1898 67.1112 14.3441 67.1112 15.5334 67.1112C16.4312 70.8541 16.4312 70.8541 16.9909 75.7163C17.1891 77.3021 17.3874 78.8995 17.5972 80.5435C17.6789 81.8844 17.7721 83.2253 17.8654 84.6012C17.4806 85.3708 17.0959 86.1403 16.6994 86.9332C14.0759 87.0032 14.0759 87.0032 10.8694 85.7672C7.66292 82.2692 7.66292 82.2692 5.03942 77.6052C4.5497 74.1189 4.1416 70.6209 3.87342 67.1112C3.10386 67.1112 2.3343 67.1112 1.54142 67.1112C1.38984 63.0302 1.38984 63.0302 1.54142 58.9492Z" fill="#D0D1EC"/>
<path d="M28.3593 50.7871C29.1638 52.7227 29.9334 54.6699 30.6913 56.6171C33.8395 61.5376 33.8395 61.5376 38.8533 63.6131C38.9116 66.7263 38.8999 69.8279 38.8533 72.9411C39.4713 74.8533 40.1476 76.7539 40.8938 78.6312C41.3719 80.2169 41.8499 81.8027 42.3513 83.4351C40.0426 84.5894 40.0426 84.5894 37.6873 85.7671C38.0721 86.9214 38.4569 88.0758 38.8533 89.2651C34.4108 89.0436 34.4108 89.0436 29.5253 88.0991C28.7557 87.3295 27.9862 86.56 27.1933 85.7671C28.1844 85.6272 29.1638 85.4756 30.1783 85.3357C31.1227 85.0908 32.0555 84.846 33.0233 84.6011C32.6385 83.8315 32.2537 83.062 31.8573 82.2691C32.2071 77.1037 32.6852 71.9617 33.1865 66.8196C33.1282 65.3738 33.0816 63.9279 33.0233 62.4471C31.4842 62.0623 29.9451 61.6775 28.3593 61.2811C27.5431 58.576 26.7619 55.8475 26.0273 53.1191C24.873 52.7343 23.7186 52.3495 22.5293 51.9531C26.0273 50.7871 26.0273 50.7871 28.3593 50.7871Z" fill="#B1BFEF"/>
<path d="M10.8691 50.7871C16.4076 52.1746 20.1272 54.6349 24.8611 57.7831C26.0155 58.9374 27.1698 60.0918 28.3591 61.2811C29.8982 61.6659 31.4374 62.0507 33.0231 62.4471C34.8771 69.1399 33.8277 75.483 33.0231 82.2691C33.0231 83.4234 33.0231 84.5778 33.0231 85.7671C31.0992 85.7671 29.1753 85.7671 27.1931 85.7671C27.1581 82.6772 27.1465 79.5757 27.2981 76.4858C27.1348 71.0056 24.9894 67.286 22.5291 62.4471C22.5291 61.6775 22.5291 60.908 22.5291 60.1151C20.99 59.3455 19.4509 58.576 17.8651 57.7831C16.7108 56.6288 15.5564 55.4744 14.3671 54.2851C12.828 53.5155 11.2889 52.746 9.70312 51.9531C10.0879 51.5683 10.4727 51.1835 10.8691 50.7871Z" fill="#BAC4EE"/>
<path d="M54.0112 1.81591C51.7375 2.53883 51.7375 2.53883 49.4172 3.27341C47.8548 3.94969 46.2923 4.61431 44.6832 5.31391C44.2985 6.85303 43.9137 8.39215 43.5172 9.97791C43.1325 9.20835 42.7477 8.43879 42.3512 7.64591C40.8121 8.03069 39.273 8.41547 37.6872 8.81191C37.1859 10.5026 37.1859 10.5026 36.6612 12.2399C36.2297 13.4176 35.7983 14.5953 35.3552 15.8079C31.9972 17.5569 31.9972 17.5569 28.3592 18.1399C26.8201 17.3703 25.281 16.6008 23.6952 15.8079C23.6952 16.5775 23.6952 17.347 23.6952 18.1399C20.7802 18.8745 20.7802 18.8745 17.8652 19.3059C25.4093 11.039 34.3991 5.95521 44.6832 1.81591C49.3472 0.649906 49.3472 0.649906 54.0112 1.81591Z" fill="#98A7DD"/>
<path d="M5.03824 44.957C6.20424 47.289 6.20424 47.289 6.20424 49.621C6.9738 49.621 7.74336 49.621 8.53624 49.621C8.92102 50.3906 9.3058 51.1602 9.70224 51.953C10.5418 52.2679 11.3813 52.5827 12.2558 52.8975C16.3951 54.6465 19.2518 57.0718 22.5282 60.115C22.5282 60.8846 22.5282 61.6542 22.5282 62.447C21.3739 62.447 20.2196 62.447 19.0302 62.447C19.0302 61.6775 19.0302 60.9079 19.0302 60.115C18.2607 60.115 17.4911 60.115 16.6982 60.115C16.6982 59.3455 16.6982 58.5759 16.6982 57.783C10.3669 56.069 10.3669 56.069 3.87224 55.451C2.96276 58.0979 2.96276 58.0979 2.41474 61.281C2.1932 62.3654 1.97166 63.4498 1.73846 64.5575C1.68016 65.397 1.6102 66.2482 1.54024 67.111C2.3098 67.111 3.07936 67.111 3.87224 67.111C4.6418 68.6502 5.41136 70.1893 6.20424 71.775C5.81946 73.3142 5.43468 74.8533 5.03824 76.439C1.54024 71.775 1.54024 71.775 0.374236 68.277C0.269296 66.1899 0.222656 64.1028 0.222656 62.0156C0.222656 60.9196 0.222656 59.8235 0.222656 58.7042C0.374236 55.5327 0.665736 52.676 1.54024 49.621C2.3098 49.621 3.07936 49.621 3.87224 49.621C4.25702 48.0819 4.6418 46.5428 5.03824 44.957Z" fill="#C0C8ED"/>
<path d="M16.698 29.8008C19.3915 29.9524 19.3915 29.9524 22.528 30.9668C23.6823 32.5059 24.8367 34.045 26.026 35.6308C25.6412 36.7851 25.2564 37.9395 24.86 39.1288C23.7057 38.744 22.5513 38.3592 21.362 37.9628C20.9772 39.1171 20.5924 40.2715 20.196 41.4608C19.8112 40.6912 19.4264 39.9217 19.03 39.1288C17.6774 39.1987 16.3365 39.2687 14.949 39.3503C13.6081 39.2804 12.2555 39.1987 10.868 39.1288C10.4133 38.196 9.95853 37.2515 9.48047 36.2837C9.55043 35.3043 9.63205 34.3132 9.70201 33.2988C14.366 32.1328 14.366 32.1328 16.698 32.1328C16.698 31.3632 16.698 30.5937 16.698 29.8008Z" fill="#A5B9F1"/>
<path d="M20.1971 18.1406C20.5819 19.295 20.9667 20.4493 21.3631 21.6386C20.5935 23.1777 19.824 24.7169 19.0311 26.3026C17.7252 30.7334 17.7252 30.7334 17.8651 34.4646C16.7574 34.2431 15.6497 34.0332 14.507 33.8117C13.306 33.6368 12.1051 33.4735 10.8691 33.2986C10.0995 34.8377 9.32997 36.3769 8.53709 37.9626C8.15231 36.8083 7.76753 35.6539 7.37109 34.4646C9.53985 28.9494 11.9768 24.8101 16.3376 20.8341C17.6086 19.9479 18.8795 19.0618 20.1971 18.1406Z" fill="#9EAEDF"/>
<path d="M106.48 56.6172C106.865 56.6172 107.25 56.6172 107.646 56.6172C108.381 60.6982 108.381 60.6982 107.646 65.9452C104.591 69.6647 101.152 72.6147 97.1523 75.2732C95.6132 75.658 94.074 76.0427 92.4883 76.4392C92.4883 75.6696 92.4883 74.9001 92.4883 74.1072C93.6426 74.1072 94.797 74.1072 95.9863 74.1072C96.3711 72.5681 96.7558 71.0289 97.1523 69.4432C99.0995 67.496 101.035 65.5604 102.982 63.6132C104.195 61.3045 105.384 58.9842 106.48 56.6172Z" fill="#384D86"/>
<path d="M56.3434 16.9746C57.4977 17.3594 58.6521 17.7442 59.8414 18.1406C58.5005 18.8169 57.1713 19.4932 55.7954 20.1928C54.0114 21.1139 52.2274 22.035 50.4434 22.9562C49.5689 23.3876 48.6828 23.8307 47.785 24.2854C43.2026 26.6641 39.2848 29.101 35.437 32.564C34.2477 33.5784 33.07 34.5812 31.8574 35.6306C31.0878 35.2458 30.3183 34.861 29.5254 34.4646C35.4254 27.5735 42.5613 22.3149 50.8749 18.7936C52.6822 18.1989 54.4895 17.5926 56.3434 16.9746Z" fill="#5C72AE"/>
<path d="M78.4961 5.31445C82.3789 6.11899 85.0024 8.11285 88.2672 10.3399C89.2699 11.3777 90.2844 12.4154 91.3221 13.4765C91.3921 14.5842 91.462 15.6919 91.5436 16.8345C91.0889 17.6507 90.6225 18.4669 90.1561 19.3065C87.1711 19.3065 87.1711 19.3065 84.3261 18.1405C84.3261 16.9861 84.3261 15.8318 84.3261 14.6425C83.5565 14.2577 82.787 13.8729 81.9941 13.4765C83.1484 13.0917 84.3028 12.7069 85.4921 12.3105C84.3378 12.019 83.1834 11.7275 81.9941 11.436C80.8398 10.9579 79.6854 10.4682 78.4961 9.97845C78.4961 8.43933 78.4961 6.90021 78.4961 5.31445Z" fill="#99ACE3"/>
<path d="M54.0097 0.65023C61.2623 0.14885 68.2466 -0.0143898 74.9977 2.98223C73.4586 3.36701 71.9195 3.75179 70.3337 4.14823C70.3337 5.30257 70.3337 6.45691 70.3337 7.64623C66.2527 7.72785 66.2527 7.72785 61.0057 7.28477C59.2684 7.14485 57.5427 7.00493 55.7587 6.85335C54.4062 6.73675 53.0653 6.60849 51.6777 6.48023C52.8321 5.71067 53.9864 4.94111 55.1757 4.14823C59.1285 4.18321 62.9063 4.80119 66.8357 5.31423C66.451 4.54467 66.0662 3.77511 65.6697 2.98223C62.918 2.48085 62.918 2.48085 59.7698 2.32927C57.8692 2.15437 55.9686 1.99113 54.0097 1.81623C54.0097 1.43145 54.0097 1.04667 54.0097 0.65023Z" fill="#9CAFE4"/>
<path d="M100.65 25.1367C106.34 30.5353 106.34 30.5353 107.646 34.4647C107.763 38.2426 107.81 41.9854 107.798 45.7633C107.798 46.801 107.798 47.8387 107.81 48.9115C107.798 51.4883 107.728 54.0535 107.646 56.6187C107.262 56.6187 106.877 56.6187 106.48 56.6187C106.096 52.3745 105.874 48.1186 105.641 43.8627C105.536 42.685 105.431 41.5074 105.314 40.2947C104.93 40.2947 104.545 40.2947 104.148 40.2947C103.332 36.8084 102.551 33.3104 101.816 29.8007C101.432 28.2616 101.047 26.7225 100.65 25.1367Z" fill="#90A2D7"/>
<path d="M54.0114 1.81578C51.7377 2.5387 51.7377 2.5387 49.4174 3.27328C47.8549 3.94956 46.2925 4.61418 44.6834 5.31378C44.2986 6.8529 43.9138 8.39202 43.5174 9.97778C43.1326 9.20822 42.7478 8.43866 42.3514 7.64578C38.8767 7.85566 38.8767 7.85566 35.3554 8.81178C34.5858 9.58134 33.8163 10.3509 33.0234 11.1438C32.2538 10.3742 31.4843 9.60466 30.6914 8.81178C33.3615 7.09776 33.3615 7.09776 37.2443 5.24382C38.5153 4.62584 39.7862 4.00786 41.0805 3.37822C46.1176 1.1978 48.6128 0.463225 54.0114 1.81578Z" fill="#7E8CB8"/>
<path d="M93.654 71.7754C94.4236 71.7754 95.1932 71.7754 95.986 71.7754C95.986 72.545 95.986 73.3145 95.986 74.1074C94.8317 74.1074 93.6774 74.1074 92.488 74.1074C92.488 75.2617 92.488 76.4161 92.488 77.6054C86.763 80.707 81.446 81.7097 74.998 82.2694C75.3828 81.4998 75.7676 80.7303 76.164 79.9374C79.2656 78.7597 82.3788 77.5937 85.492 76.4394C88.2205 74.9003 90.9489 73.3495 93.654 71.7754Z" fill="#43578E"/>
<path d="M1.54024 49.6211C1.92502 49.6211 2.3098 49.6211 2.70624 49.6211C2.86948 54.425 2.7179 58.8558 1.98332 63.6131C1.83174 64.7674 1.69182 65.9218 1.54024 67.1111C2.3098 67.1111 3.07936 67.1111 3.87224 67.1111C4.6418 68.6502 5.41136 70.1893 6.20424 71.7751C5.81946 73.3142 5.43468 74.8533 5.03824 76.4391C1.54024 71.7751 1.54024 71.7751 0.374236 68.2771C0.269296 66.19 0.222656 64.1028 0.222656 62.0157C0.222656 60.9196 0.222656 59.8236 0.222656 58.7042C0.374236 55.5444 0.747356 52.676 1.54024 49.6211Z" fill="#ABADBF"/>
<path d="M9.70306 71.7754C10.4726 71.7754 11.2422 71.7754 12.0351 71.7754C11.8135 73.2446 11.6036 74.7137 11.3821 76.2179C11.2072 77.8269 11.044 79.4477 10.8691 81.1034C12.0234 82.2577 13.1777 83.4121 14.3671 84.6014C13.9823 85.371 13.5975 86.1405 13.2011 86.9334C9.94792 84.1816 7.66256 81.6398 5.62206 77.8969C5.42384 77.0341 5.23728 76.1712 5.03906 75.2734C6.1934 74.8886 7.34774 74.5038 8.53706 74.1074C8.92184 73.3378 9.30662 72.5683 9.70306 71.7754Z" fill="#C5C5DC"/>
<path d="M81.9939 82.2689C79.382 83.2833 76.7469 84.2744 74.1234 85.2539C72.6659 85.8135 71.1967 86.3616 69.6926 86.9329C68.3633 87.3177 67.0341 87.7025 65.6699 88.0989C64.1307 87.7141 62.5916 87.3293 61.0059 86.9329C61.962 86.793 62.9298 86.6414 63.9209 86.5015C65.3667 86.14 65.3667 86.14 66.8359 85.7669C66.8359 84.9973 66.8359 84.2278 66.8359 83.4349C72.5143 81.8491 76.2222 80.8231 81.9939 82.2689Z" fill="#394879"/>
<path d="M28.3593 34.4629C29.1288 35.2325 29.8984 36.002 30.6913 36.7949C28.4059 39.1735 26.0739 41.5055 23.6953 43.7909C23.3105 44.9452 22.9257 46.0996 22.5293 47.2889C21.3749 47.2889 20.2206 47.2889 19.0312 47.2889C20.1973 42.6249 20.1973 42.6249 22.0162 40.3046C24.045 38.2641 26.2022 36.3635 28.3593 34.4629Z" fill="#95A7DE"/>
<path d="M26.0273 83.4355C26.7968 83.8203 27.5664 84.2051 28.3593 84.6015C27.9745 85.3711 27.5897 86.1407 27.1933 86.9335C29.5136 87.3766 31.8456 87.7614 34.1893 88.0995C34.1893 88.4843 34.1893 88.8691 34.1893 89.2655C25.4909 89.8136 25.4909 89.8136 22.5293 89.2655C22.1445 87.7264 21.7597 86.1873 21.3633 84.6015C22.9024 84.2168 24.4415 83.832 26.0273 83.4355Z" fill="#BEC7F6"/>
</svg>
