<svg width="186" height="135" viewBox="0 0 186 135" fill="none" xmlns="http://www.w3.org/2000/svg">
<path d="M3.498 0.126609C12.6977 -0.479711 21.9091 1.09439 30.316 4.79061C38.1515 10.0143 44.961 15.9259 50.4295 23.6681C52.8315 28.9035 53.8925 34.0106 54.9069 39.6657C55.2567 40.4702 55.6065 41.2748 55.968 42.1026C57.5071 40.9483 59.0462 39.7939 60.632 38.6046C68.246 37.7884 74.5424 39.7706 81.62 42.3241C83.8121 43.0704 86.0042 43.8283 88.1962 44.5862C91.8691 45.8571 95.5304 47.1514 99.2033 48.4456C109.872 52.0136 120.448 54.0075 131.571 55.4883C136.679 56.2229 140.351 56.8175 144.817 59.5226C145.855 60.712 145.855 60.712 146.916 61.9246C147.138 65.3527 147.138 65.3527 145.75 68.9206C140.293 74.8089 133.204 77.5373 125.928 80.5806C126.942 80.6156 127.957 80.6389 128.995 80.6739C131.012 80.7672 131.012 80.7672 133.076 80.8721C134.393 80.9304 135.722 80.977 137.087 81.0353C141.086 81.7466 141.086 81.7466 144.561 84.1019C147.954 86.7021 147.954 86.7021 152.14 86.912C154.285 86.9236 154.285 86.9236 156.466 86.9236C163.706 87.2385 169.245 88.2995 175.693 91.6343C180.019 94.4793 182.526 97.2311 185.394 101.569C185.394 103.493 185.394 105.416 185.394 107.399C183.47 107.399 181.546 107.399 179.564 107.399C178.41 106.536 177.255 105.673 176.066 104.775C168.627 99.6564 159.369 96.9862 150.414 95.7386C148.875 96.1234 147.336 96.5082 145.75 96.9046C141.961 97.1728 138.183 97.3943 134.382 97.5576C133.344 97.6159 132.306 97.6625 131.245 97.7091C128.691 97.8374 126.15 97.954 123.596 98.0706C124.75 99.7963 124.75 99.7963 125.928 101.569C124.622 101.604 123.304 101.627 121.964 101.662C111.866 102.047 104.602 102.91 95.612 107.399C91.5193 107.807 88.4994 107.655 84.535 106.676C81.62 105.067 81.62 105.067 77.9005 101.569C73.1782 97.8491 70.508 96.9746 64.7713 96.0534C61.9962 95.7619 59.1978 95.6337 56.4111 95.5171C51.304 94.5726 51.304 94.5726 46.57 91.2961C40.8683 85.781 36.8223 79.1115 32.648 72.4186C28.6136 65.9706 24.7892 60.7353 18.656 56.0946C17.5017 54.9403 16.3473 53.7859 15.158 52.5966C18.8076 52.8182 18.8076 52.8182 23.32 53.7626C28.0306 57.0857 31.552 60.8053 34.98 65.4226C33.6624 61.2134 31.6686 58.1584 29.0101 54.7071C27.9024 53.2379 26.7947 51.7804 25.652 50.2646C25.652 49.4951 25.652 48.7255 25.652 47.9326C24.8824 47.9326 24.1129 47.9326 23.32 47.9326C21.9908 45.7988 20.6732 43.6534 19.3789 41.4963C16.4523 37.0189 13.0009 33.0195 9.59618 28.9151C6.22644 24.8458 3.01994 20.7881 0 16.4506C0 15.2963 0 14.1419 0 12.9526C1.9239 12.9526 3.8478 12.9526 5.83 12.9526C8.69836 14.9931 8.69836 14.9931 11.4385 17.6166C12.3596 18.4794 13.2807 19.3423 14.2369 20.2401C14.9248 20.9164 15.6127 21.5927 16.324 22.2806C14.7965 18.1646 13.0009 14.6317 10.564 10.9821C9.98096 10.0959 9.3863 9.19809 8.79164 8.27695C6.97268 5.67677 6.97268 5.67677 3.498 3.62461C3.498 2.47027 3.498 1.31593 3.498 0.126609Z" fill="#738CD5"/>
<path d="M3.498 0.126609C12.6977 -0.479711 21.9091 1.09439 30.316 4.79061C38.1515 10.0143 44.961 15.9259 50.4295 23.6681C52.7498 28.7286 54.0324 33.6724 55.2567 39.106C55.8397 42.0676 55.8397 42.0676 57.134 44.4346C57.0874 45.9971 57.0407 47.5595 56.9941 49.1686C57.0407 50.6844 57.0874 52.2002 57.134 53.7626C58.2883 54.1474 59.4427 54.5322 60.632 54.9286C60.667 57.6454 60.6553 60.3738 60.632 63.0906C61.4249 66.8801 62.2994 70.518 63.3255 74.2376C63.6986 75.7184 63.6986 75.7184 64.0834 77.2225C64.8646 80.2658 64.8646 80.2658 66.462 84.0786C67.6163 83.309 68.7707 82.5395 69.96 81.7466C69.8434 83.0992 69.7151 84.4401 69.5985 85.8276C69.7734 87.8448 69.7734 87.8448 69.96 89.9086C71.8839 89.9086 73.8078 89.9086 75.79 89.9086C76.6762 92.9868 77.4457 96.1001 78.122 99.2366C79.8477 99.8196 79.8477 99.8196 81.62 100.403C80.8504 101.172 80.0809 101.942 79.288 102.735C78.1337 101.72 78.1337 101.72 76.956 100.694C72.2803 97.1844 67.4764 96.4848 61.798 95.7386C60.014 95.6686 58.2417 95.5987 56.4111 95.5171C51.304 94.5726 51.304 94.5726 46.57 91.2961C40.8683 85.781 36.8223 79.1115 32.648 72.4186C28.6136 65.9706 24.7892 60.7353 18.656 56.0946C17.5017 54.9403 16.3473 53.7859 15.158 52.5966C18.8076 52.8182 18.8076 52.8182 23.32 53.7626C28.0306 57.0857 31.552 60.8053 34.98 65.4226C33.6624 61.2134 31.6686 58.1584 29.0101 54.7071C27.9024 53.2379 26.7947 51.7804 25.652 50.2646C25.652 49.4951 25.652 48.7255 25.652 47.9326C24.8824 47.9326 24.1129 47.9326 23.32 47.9326C21.9908 45.7988 20.6732 43.6534 19.3789 41.4963C16.4523 37.0189 13.0009 33.0195 9.59618 28.9151C6.22644 24.8458 3.01994 20.7881 0 16.4506C0 15.2963 0 14.1419 0 12.9526C1.9239 12.9526 3.8478 12.9526 5.83 12.9526C8.69836 14.9931 8.69836 14.9931 11.4385 17.6166C12.3596 18.4794 13.2807 19.3423 14.2369 20.2401C14.9248 20.9164 15.6127 21.5927 16.324 22.2806C14.7965 18.1646 13.0009 14.6317 10.564 10.9821C9.98096 10.0959 9.3863 9.19809 8.79164 8.27695C6.97268 5.67677 6.97268 5.67677 3.498 3.62461C3.498 2.47027 3.498 1.31593 3.498 0.126609Z" fill="#738CD6"/>
<path d="M60.6308 38.6051C68.2681 37.8938 74.5295 39.7711 81.6188 42.3246C83.8109 43.0709 86.003 43.8288 88.1951 44.5867C91.868 45.8576 95.5292 47.1519 99.2021 48.4461C109.871 52.0141 120.447 54.0079 131.57 55.4888C136.677 56.2233 140.35 56.818 144.816 59.5231C145.854 60.7124 145.854 60.7124 146.915 61.9251C147.136 65.3531 147.136 65.3531 145.749 68.9211C140.292 74.8094 133.203 77.5378 125.927 80.5811C127.443 80.6277 127.443 80.6277 128.993 80.6744C131.011 80.7676 131.011 80.7676 133.074 80.8726C135.057 80.9542 135.057 80.9542 137.085 81.0358C141.085 81.7471 141.085 81.7471 144.56 84.1024C147.953 86.7026 147.953 86.7026 152.139 86.9125C153.561 86.9125 154.995 86.9241 156.464 86.9241C163.705 87.2389 169.244 88.3 175.692 91.6348C180.018 94.4798 182.524 97.2316 185.393 101.569C185.393 103.493 185.393 105.417 185.393 107.399C183.469 107.399 181.545 107.399 179.563 107.399C178.408 106.536 177.254 105.673 176.065 104.776C167.635 98.9806 158.097 97.1383 148.081 95.7391C148.081 94.9695 148.081 94.2 148.081 93.4071C143.72 90.1889 139.569 89.1162 134.31 88.0901C130.206 87.2856 130.206 87.2856 127.093 86.4111C127.093 85.6415 127.093 84.872 127.093 84.0791C131.745 83.8109 135.383 84.1141 139.919 85.2451C139.919 84.4755 139.919 83.706 139.919 82.9131C128.853 82.6332 118.068 84.219 107.329 86.7609C103.062 87.7403 98.794 88.3117 94.4448 88.7431C95.2144 87.9735 95.9839 87.204 96.7768 86.4111C100.963 85.4783 105.16 84.767 109.381 84.0558C110.606 83.671 111.842 83.2979 113.101 82.9131C113.87 81.374 114.64 79.8348 115.433 78.2491C119.665 77.9576 119.665 77.9576 123.595 78.2491C122.825 77.0947 122.056 75.9404 121.263 74.7511C120.108 74.3663 118.954 73.9815 117.765 73.5851C118.15 72.8155 118.534 72.046 118.931 71.2531C117.776 71.2531 116.622 71.2531 115.433 71.2531C115.433 72.0226 115.433 72.7922 115.433 73.5851C111.235 74.9843 108.192 75.0426 103.773 74.7511C99.1788 73.1537 99.1788 73.1537 95.6108 71.2531C95.6108 70.4835 95.6108 69.714 95.6108 68.9211C93.6753 68.1282 91.728 67.347 89.7808 66.5891C81.4556 61.7502 73.9815 54.9407 67.9183 47.5017C65.015 44.1086 62.2516 42.861 58.2988 40.9371C59.0684 40.1675 59.8379 39.398 60.6308 38.6051Z" fill="#738CD2"/>
<path d="M75.1004 98.0132C78.1203 100.403 78.1203 100.403 80.3008 102.887C82.9009 105.487 82.9009 105.487 87.7398 106.525C89.1857 106.816 90.6199 107.108 92.1123 107.399C90.958 108.169 89.8037 108.939 88.6143 109.731C89.1857 110.886 89.1857 110.886 89.7803 112.063C90.1068 115.585 90.3633 119.106 90.5849 122.627C90.7015 124.54 90.8297 126.464 90.958 128.434C90.958 129.95 90.9463 131.477 90.9463 133.051C89.792 133.634 89.792 133.634 88.6143 134.217C87.8798 130.988 87.2968 127.723 86.7954 124.458C86.259 121.1 85.711 117.742 85.1163 114.395C84.7316 114.011 84.3468 113.626 83.9503 113.229C81.3851 120.529 80.0209 126.405 80.4523 134.217C78.202 132.562 78.202 132.562 75.7883 129.553C74.9022 124.505 74.9022 124.505 74.4708 118.768C74.2142 115.363 73.8994 111.959 73.4563 108.565C72.6868 108.565 71.9172 108.565 71.1243 108.565C70.3081 110.489 69.5386 112.437 68.7923 114.395C60.7353 128.527 60.7353 128.527 54.8003 133.051C52.8764 133.051 50.9525 133.051 48.9703 133.051C48.364 128.621 48.364 128.621 48.5273 122.849C48.5739 120.96 48.6089 119.059 48.6555 117.112C48.9703 112.063 48.9703 112.063 50.1363 107.399C47.4429 109.323 44.7494 111.247 41.9743 113.229C42.2658 109.51 42.2658 109.51 43.1403 105.067C44.6911 103.12 46.2536 101.185 47.8043 99.2375C44.4696 96.6373 44.4696 96.6373 40.5168 96.474C35.3165 96.9871 32.4015 98.8643 27.9823 101.569C24.5543 102.444 24.5543 102.444 22.1523 102.735C25.3938 99.2608 28.4138 96.7306 32.6463 94.5735C45.3907 92.2065 63.6503 91.4719 75.1004 98.0132Z" fill="#355237"/>
<path d="M48.9703 23.4473C49.7398 23.832 50.5094 24.2168 51.3023 24.6133C52.2001 27.4816 52.9813 30.3733 53.7042 33.2883C55.0101 39.0017 55.0101 39.0017 57.1323 44.4353C57.0856 45.9977 57.039 47.5601 56.9923 49.1692C57.039 50.685 57.0856 52.2008 57.1323 53.7633C58.2866 54.148 59.4409 54.5328 60.6303 54.9293C60.6652 57.646 60.6536 60.3745 60.6303 63.0913C61.4231 66.8808 62.2976 70.5187 63.3237 74.2382C63.5802 75.2293 63.8251 76.2088 64.0816 77.2232C64.8628 80.2664 64.8628 80.2664 66.4603 84.0793C67.6146 83.3097 68.7689 82.5401 69.9583 81.7473C69.8417 83.0998 69.7134 84.4407 69.5968 85.8283C69.7717 87.8454 69.7717 87.8454 69.9583 89.9093C71.8822 89.9093 73.8061 89.9093 75.7883 89.9093C76.6744 92.9875 77.444 96.1007 78.1203 99.2373C79.2746 99.622 80.4289 100.007 81.6183 100.403C80.8487 101.173 80.0791 101.942 79.2863 102.735C78.5167 102.059 77.7471 101.383 76.9543 100.695C72.2786 97.1851 67.4747 96.4855 61.7963 95.7393C60.0123 95.6693 58.24 95.5993 56.4093 95.5177C51.3023 94.5733 51.3023 94.5733 46.5683 91.2968C40.8666 85.7816 36.8205 79.1121 32.6463 72.4193C28.6119 65.9713 24.7874 60.7359 18.6543 56.0953C17.4999 54.9409 16.3456 53.7866 15.1562 52.5973C18.7942 52.8188 18.7942 52.8188 23.3183 53.7633C27.2127 56.515 30.0111 59.1968 32.9378 62.9513C33.9522 64.1756 33.9522 64.1756 34.9783 65.4233C36.1326 64.8519 36.1326 64.8519 37.3103 64.2573C37.695 65.7964 38.0798 67.3355 38.4763 68.9213C39.2458 68.9213 40.0154 68.9213 40.8083 68.9213C42.0209 71.6147 43.1869 74.3432 44.3063 77.0833C46.44 81.0943 47.4661 82.6917 51.3023 85.2453C51.687 84.4757 52.0718 83.7061 52.4683 82.9133C51.6987 82.9133 50.9291 82.9133 50.1363 82.9133C48.9003 75.3926 47.9675 67.1839 48.9703 59.5933C50.1246 58.0541 51.2789 56.515 52.4683 54.9293C52.958 49.4374 52.958 49.4374 52.4683 44.4353C51.6987 44.82 50.9291 45.2048 50.1363 45.6013C50.1013 43.1527 50.078 40.7041 50.1363 38.2555C50.1363 33.2766 49.5299 28.4028 48.9703 23.4473Z" fill="#728CD5"/>
<path d="M61.7969 38.6047C68.9911 38.1033 74.8561 39.9339 81.5489 42.3242C83.7527 43.0705 85.9447 43.8284 88.1485 44.5863C91.8447 45.8572 95.5293 47.1515 99.2138 48.4457C109.929 52.037 120.61 54.0542 131.78 55.6982C132.935 55.8615 134.089 56.0364 135.278 56.2229C136.829 56.4328 136.829 56.4328 138.415 56.666C141.085 57.2607 141.085 57.2607 144.583 59.5927C144.583 60.747 144.583 61.9014 144.583 63.0907C140.957 63.5687 140.957 63.5687 136.059 63.6737C130.183 63.9185 124.971 64.2683 119.374 66.0756C111.853 68.3493 104.554 68.7225 96.7769 67.7547C90.2589 65.5743 84.254 62.0529 79.2869 57.2607C79.2869 56.4911 79.2869 55.7216 79.2869 54.9287C77.7478 54.1591 76.2086 53.3896 74.6229 52.5967C72.5474 50.4979 72.5474 50.4979 70.5419 48.0843C67.7435 44.7728 64.9218 41.6013 61.7969 38.6047Z" fill="#9FB4F0"/>
<path d="M130.23 82.6912C132.946 82.6679 132.946 82.6679 135.71 82.6445C137.797 82.7728 137.797 82.7728 139.919 82.9127C139.919 83.6823 139.919 84.4518 139.919 85.2447C136.549 85.1048 133.25 84.6267 129.903 84.1837C128.97 84.1487 128.049 84.1137 127.093 84.0787C127.093 84.8483 127.093 85.6178 127.093 86.4107C128.656 86.574 130.218 86.7489 131.839 86.9238C137.296 87.5417 140.922 88.5562 145.749 91.0747C146.903 92.2291 148.058 93.3834 149.247 94.5727C145.749 96.9047 145.749 96.9047 140.56 97.3828C138.532 97.4761 136.491 97.5577 134.462 97.6276C133.413 97.6743 132.375 97.7209 131.302 97.7676C128.737 97.8725 126.172 97.9774 123.595 98.0707C124.365 99.2251 125.134 100.379 125.927 101.569C124.621 101.592 123.315 101.627 121.963 101.662C111.865 102.035 104.601 102.898 95.6111 107.399C91.2386 107.83 88.2886 107.655 84.1027 106.373C83.2865 105.941 82.4586 105.51 81.6191 105.067C81.2343 104.297 80.8496 103.528 80.4531 102.735C83.9511 99.2367 83.9511 99.2367 86.8078 98.4205C87.8339 98.2573 88.8716 98.094 89.9327 97.9191C92.7428 97.4178 92.7428 97.4178 95.6111 96.9047C95.9959 96.5199 96.3807 96.1352 96.7771 95.7387C98.5494 95.7737 98.5494 95.7737 100.345 95.8087C101.476 95.7854 102.607 95.762 103.773 95.7387C103.773 94.9692 103.773 94.1996 103.773 93.4067C100.24 93.4883 96.8004 93.6866 93.2791 93.9897C89.7695 94.2929 86.3181 94.4911 82.7851 94.5727C82.7851 93.8032 82.7851 93.0336 82.7851 92.2407C84.3242 91.4712 85.8634 90.7016 87.4491 89.9087C86.6796 89.1392 85.91 88.3696 85.1171 87.5767C86.2248 87.4018 87.3325 87.2386 88.4752 87.0637C91.9965 86.6089 91.9965 86.6089 94.4451 85.2447C95.5995 86.0143 96.7538 86.7838 97.9431 87.5767C102.386 87.122 102.386 87.122 107.271 86.0493C108.939 85.7111 110.594 85.3846 112.297 85.0348C118.628 83.624 123.653 82.7145 130.23 82.6912Z" fill="#728DD6"/>
<path d="M141.085 81.7475C142.24 82.5288 143.382 83.3216 144.572 84.1262C147.965 86.6914 147.965 86.6914 152.139 86.9129C153.562 86.9129 154.996 86.9246 156.465 86.9246C163.706 87.2394 169.244 88.3005 175.692 91.6352C180.018 94.4803 182.525 97.232 185.393 101.57C185.393 103.493 185.393 105.417 185.393 107.4C183.469 107.4 181.546 107.4 179.563 107.4C178.409 106.537 177.255 105.674 176.065 104.776C167.635 98.981 158.097 97.1388 148.081 95.7396C148.081 94.97 148.081 94.2004 148.081 93.4076C143.72 90.1894 139.57 89.1167 134.311 88.0906C130.207 87.286 130.207 87.286 127.093 86.4115C127.093 85.642 127.093 84.8724 127.093 84.0795C131.746 83.8114 135.384 84.1145 139.919 85.2455C139.919 84.476 139.919 83.7064 139.919 82.9135C128.854 82.6337 118.068 84.2195 107.33 86.7613C103.062 87.7408 98.7945 88.3121 94.4453 88.7435C96.7773 86.4115 96.7773 86.4116 101.966 84.8724C114.897 81.6543 127.793 78.5993 141.085 81.7475Z" fill="#6177B3"/>
<path d="M3.498 2.45898C7.94046 3.26352 7.94046 3.26352 12.826 4.79098C15.4145 7.91586 16.4289 10.8892 17.8515 14.702C20.1252 19.4126 22.667 21.5231 26.818 24.613C27.5876 25.3825 28.3571 26.1521 29.15 26.945C28.9285 29.9299 28.9285 29.9299 27.984 32.775C26.8297 33.1598 25.6753 33.5445 24.486 33.941C25.9318 36.5761 27.401 39.1996 29.0334 41.7299C29.4532 42.616 29.8846 43.5138 30.316 44.435C29.9312 45.9741 29.5464 47.5132 29.15 49.099C28.3804 49.8685 27.6109 50.6381 26.818 51.431C26.4332 50.2766 26.0484 49.1223 25.652 47.933C24.8824 47.933 24.1129 47.933 23.32 47.933C21.9908 45.7992 20.6732 43.6538 19.3789 41.4967C16.4523 37.0192 13.0009 33.0198 9.59618 28.9155C6.22644 24.8462 3.01994 20.7885 0 16.451C0 15.2966 0 14.1423 0 12.953C1.9239 12.953 3.8478 12.953 5.83 12.953C8.69836 14.9935 8.69836 14.9935 11.4385 17.617C12.3596 18.4798 13.2807 19.3427 14.2369 20.2405C14.9248 20.9168 15.6127 21.593 16.324 22.281C14.8082 18.1767 13.0126 14.6903 10.564 11.0641C9.98096 10.1779 9.3863 9.29174 8.79164 8.39392C6.86774 5.65382 6.86774 5.65382 3.498 2.45898Z" fill="#7189CC"/>
<path d="M122.429 82.9137C126.254 82.3774 126.254 82.3774 131.174 82.4707C132.795 82.494 134.416 82.5056 136.095 82.5173C137.354 82.6456 138.614 82.7855 139.919 82.9137C139.919 83.6833 139.919 84.4529 139.919 85.2457C136.538 85.1175 133.25 84.6278 129.904 84.1847C128.971 84.1497 128.05 84.1147 127.093 84.0797C127.093 84.8493 127.093 85.6189 127.093 86.4117C128.656 86.575 130.218 86.7499 131.827 86.9248C137.284 87.5428 140.922 88.5572 145.749 91.0757C146.904 92.2301 148.058 93.3844 149.247 94.5737C148.863 94.9585 148.478 95.3433 148.081 95.7397C141.505 96.1012 134.917 96.0662 128.329 96.1012C125.531 96.1595 125.531 96.1595 122.674 96.2061C120.902 96.2178 119.13 96.2295 117.299 96.2411C114.839 96.2644 114.839 96.2644 112.32 96.2878C111.038 96.1012 109.755 95.9263 108.437 95.7397C107.668 94.2006 106.898 92.6615 106.105 91.0757C109.195 90.5744 112.309 90.1896 115.433 89.9097C115.433 89.1402 115.433 88.3706 115.433 87.5777C116.588 87.6244 117.742 87.671 118.931 87.7293C120.086 87.671 121.24 87.6244 122.429 87.5777C122.429 86.0386 122.429 84.4995 122.429 82.9137Z" fill="#758DD5"/>
<path d="M66.4603 95.7398C66.4603 96.1246 66.4603 96.5094 66.4603 96.9058C62.9623 97.3373 59.4643 97.7337 55.9663 98.0718C57.8902 98.0718 59.8141 98.0718 61.7963 98.0718C61.9712 99.4477 61.9712 99.4477 62.1578 100.847C61.6564 101.85 61.155 102.864 60.6303 103.902C57.5404 104.765 54.4389 105.546 51.3023 106.234C50.9176 107.388 50.5328 108.543 50.1363 109.732C50.1363 108.962 50.1363 108.193 50.1363 107.4C47.4429 109.324 44.7494 111.248 41.9743 113.23C42.2658 109.51 42.2658 109.51 43.1403 105.068C44.6911 103.121 46.2536 101.185 47.8043 99.2378C44.4696 96.6377 44.4696 96.6377 40.5168 96.4744C35.3165 96.9875 32.4015 98.8647 27.9823 101.57C24.5543 102.444 24.5543 102.444 22.1523 102.736C25.3938 99.2612 28.4021 96.7309 32.6463 94.5738C43.8866 92.58 55.3484 93.2446 66.4603 95.7398Z" fill="#354D37"/>
<path d="M15.1562 52.5977C18.8058 52.7492 18.8058 52.7492 23.3183 53.7637C27.2127 56.5154 30.0111 59.1972 32.9378 62.9517C33.614 63.7679 34.2903 64.5841 34.9783 65.4237C35.7478 65.0389 36.5174 64.6541 37.3103 64.2577C37.695 65.7968 38.0798 67.3359 38.4763 68.9217C39.2458 68.9217 40.0154 68.9217 40.8083 68.9217C41.9976 71.6268 43.1636 74.3552 44.3063 77.0837C45.8454 79.4273 47.4078 81.7593 48.9703 84.0797C48.9703 84.8492 48.9703 85.6188 48.9703 86.4117C46.6616 87.566 46.6616 87.566 44.3063 88.7437C39.9921 83.8581 36.7389 78.5178 33.2992 73.0027C28.9617 66.0999 24.4609 59.5587 17.5582 54.9996C16.7653 54.5915 15.9724 54.1834 15.1562 53.7637C15.1562 53.3789 15.1562 52.9941 15.1562 52.5977Z" fill="#7387CA"/>
<path d="M73.457 102.734C74.9961 103.504 76.5352 104.273 78.121 105.066C78.9255 109.217 78.9255 109.217 79.287 113.228C79.6717 113.613 80.0565 113.998 80.453 114.394C80.8377 113.24 81.2225 112.086 81.619 110.896C83.1581 110.896 84.6972 110.896 86.283 110.896C86.6677 110.127 87.0525 109.357 87.449 108.564C89.781 112.062 89.781 112.062 90.3406 116.96C90.4456 118.848 90.5505 120.749 90.6555 122.708C90.7721 124.609 90.8887 126.509 91.0053 128.468C90.9819 129.984 90.9703 131.488 90.947 133.05C90.1774 133.435 89.4078 133.82 88.615 134.216C87.8804 130.987 87.2974 127.722 86.796 124.457C86.2596 121.099 85.7116 117.741 85.117 114.394C84.7322 114.01 84.3474 113.625 83.951 113.228C81.3858 120.528 80.0215 126.404 80.453 134.216C78.2026 132.561 78.2026 132.561 75.789 129.552C74.9028 124.504 74.9028 124.504 74.483 118.767C74.2149 115.362 73.9 111.957 73.457 108.564C72.6874 108.564 71.9178 108.564 71.125 108.564C70.7402 109.334 70.3554 110.103 69.959 110.896C69.1544 107.981 69.1544 107.981 68.793 105.066C69.9473 105.066 71.1016 105.066 72.291 105.066C72.291 105.836 72.291 106.605 72.291 107.398C73.4453 107.398 74.5996 107.398 75.789 107.398C75.789 106.629 75.789 105.859 75.789 105.066C75.0194 105.066 74.2498 105.066 73.457 105.066C73.457 104.297 73.457 103.527 73.457 102.734Z" fill="#313F32"/>
<path d="M3.49609 2.45898C7.93855 3.26352 7.93855 3.26352 12.8241 4.79098C15.4126 7.91586 16.427 10.8892 17.8496 14.702C20.1233 19.4126 22.6651 21.5231 26.8161 24.613C27.5857 25.3825 28.3552 26.1521 29.1481 26.945C28.9266 29.9299 28.9266 29.9299 27.9821 32.775C26.8278 33.1598 25.6734 33.5445 24.4841 33.941C25.9299 36.5761 27.3991 39.1996 29.0315 41.7299C29.4513 42.616 29.8827 43.5138 30.3141 44.435C29.9293 45.9741 29.5445 47.5132 29.1481 49.099C28.3785 49.8685 27.609 50.6381 26.8161 51.431C26.4313 50.2766 26.0465 49.1223 25.6501 47.933C24.8805 47.933 24.111 47.933 23.3181 47.933C23.7029 47.1634 24.0877 46.3939 24.4841 45.601C25.2537 45.9858 26.0232 46.3705 26.8161 46.767C24.7173 39.8409 21.4758 33.7311 18.1411 27.3414C16.3221 23.447 16.3221 23.447 15.7391 20.4037C14.9812 16.8008 13.3721 14.6087 11.2267 11.6471C10.1656 10.1546 10.1656 10.1546 9.08123 8.63878C6.88915 5.71212 6.88915 5.71212 3.49609 2.45898Z" fill="#758CD4"/>
<path d="M73.4568 96.9046C75.8354 98.8985 78.0741 101.009 80.3361 103.143C83.9158 105.964 87.6936 106.606 92.1128 107.399C92.1128 107.783 92.1128 108.168 92.1128 108.565C90.1889 108.565 88.265 108.565 86.2828 108.565C86.2828 109.334 86.2828 110.104 86.2828 110.897C84.7436 110.897 83.2045 110.897 81.6188 110.897C81.234 112.436 80.8492 113.975 80.4528 115.561C77.8642 111.62 76.6866 108.495 75.7888 103.901C75.0192 103.516 74.2496 103.131 73.4568 102.735C73.4568 103.504 73.4568 104.274 73.4568 105.067C74.2263 105.067 74.9959 105.067 75.7888 105.067C75.7888 105.836 75.7888 106.606 75.7888 107.399C74.6344 107.399 73.4801 107.399 72.2908 107.399C71.906 106.629 71.5212 105.86 71.1248 105.067C69.7839 104.484 68.4313 103.912 67.0438 103.318C65.6912 102.735 64.3503 102.163 62.9628 101.569C62.578 100.799 62.1932 100.03 61.7968 99.2366C60.4559 99.2366 59.1033 99.2366 57.7158 99.2366C56.3749 99.2366 55.0223 99.2366 53.6348 99.2366C53.25 98.4671 52.8652 97.6975 52.4688 96.9046C58.9983 95.6337 67.1603 94.6193 73.4568 96.9046Z" fill="#395744"/>
<path d="M104.939 94.5741C108.682 94.3992 108.682 94.3992 113.871 94.5624C116.623 94.644 116.623 94.644 119.444 94.7257C120.412 94.7606 121.38 94.7956 122.371 94.8306C125.333 94.9355 128.283 95.0288 131.244 95.1104C141.82 95.4486 141.82 95.4486 145.749 95.7401C145.749 96.1249 145.749 96.5096 145.749 96.9061C142.053 97.1859 138.38 97.3958 134.672 97.559C133.611 97.6173 132.562 97.664 131.466 97.7106C128.842 97.8389 126.219 97.9555 123.595 98.0721C124.75 99.8094 124.75 99.8094 125.927 101.57C124.621 101.605 123.304 101.628 121.963 101.663C111.97 102.036 104.461 102.736 95.6113 107.4C94.8417 107.015 94.0722 106.631 93.2793 106.234C96.7773 102.736 96.7773 102.736 100.275 100.404C99.8905 99.2497 99.5057 98.0954 99.1093 96.9061C101.033 96.9061 102.957 96.9061 104.939 96.9061C104.939 96.1365 104.939 95.367 104.939 94.5741Z" fill="#667EB5"/>
<path d="M144.584 60.7598C145.353 61.1445 146.123 61.5293 146.916 61.9258C146.916 65.1323 146.916 65.1323 145.75 68.9218C142.473 72.1982 142.473 72.1982 138.754 74.7518C137.214 75.1365 135.675 75.5213 134.09 75.9178C132.935 75.1482 131.781 74.3786 130.592 73.5858C130.592 72.8162 130.592 72.0466 130.592 71.2538C129.052 70.869 127.513 70.4842 125.928 70.0878C127.467 69.3182 129.006 68.5486 130.592 67.7558C130.592 67.371 130.592 66.9862 130.592 66.5898C134.09 66.5898 137.588 66.5898 141.086 66.5898C141.47 66.205 141.855 65.8202 142.252 65.4238C132.515 66.0301 122.803 66.7064 113.102 67.7558C115.434 65.4238 115.434 65.4238 119.654 64.1178C126.674 62.6137 133.74 63.0335 140.876 63.2433C142.1 63.185 143.324 63.1384 144.584 63.0918C144.584 62.3222 144.584 61.5526 144.584 60.7598Z" fill="#738ACD"/>
<path d="M55.9668 54.9297C59.4648 58.4277 60.3743 62.9168 61.8668 67.5341C62.1816 68.4786 62.4964 69.4231 62.8229 70.3908C64.0822 74.2503 65.2482 77.9582 65.8778 81.9809C66.0644 82.6688 66.2626 83.3684 66.4608 84.0797C67.6151 83.3101 68.7695 82.5406 69.9588 81.7477C69.7839 83.7649 69.7839 83.7649 69.5973 85.8287C69.7139 87.1812 69.8305 88.5221 69.9588 89.9097C71.8827 89.9097 73.8066 89.9097 75.7888 89.9097C76.675 92.9879 77.4445 96.1011 78.1208 99.2377C79.8465 99.809 79.8465 99.809 81.6188 100.404C80.8492 101.173 80.0797 101.943 79.2868 102.736C78.4939 102.083 77.701 101.441 76.8848 100.765C73.6317 98.2116 71.7778 97.3954 67.9183 96.2527C66.2859 95.693 64.6535 95.145 62.9628 94.5737C62.3798 92.848 62.3798 92.848 61.7968 91.0757C62.5664 91.0757 63.3359 91.0757 64.1288 91.0757C63.0561 80.8032 60.4209 70.8456 56.8646 61.1794C55.9668 58.4277 55.9668 58.4277 55.9668 54.9297Z" fill="#627AC0"/>
<path d="M141.085 81.7475C142.228 82.5288 143.371 83.31 144.537 84.1145C147.988 86.703 147.988 86.703 152.384 87.0412C154.623 87.0878 154.623 87.0878 156.896 87.1461C162.272 87.286 166.562 87.4376 171.401 89.9096C171.401 90.2943 171.401 90.6791 171.401 91.0756C169.477 91.0756 167.554 91.0756 165.571 91.0756C164.988 90.4926 164.988 90.4926 164.405 89.9096C162.295 89.7696 160.184 89.6997 158.062 89.688C156.908 89.6763 155.765 89.653 154.576 89.6414C153.095 89.7696 153.095 89.7696 151.579 89.9096C150.81 90.6791 150.04 91.4487 149.247 92.2416C148.14 91.542 147.032 90.8423 145.901 90.1311C140.281 87.1461 136.118 86.9246 129.868 86.7264C128.947 86.6214 128.038 86.5165 127.093 86.4115C127.093 85.642 127.093 84.8724 127.093 84.0795C131.746 83.8114 135.384 84.1145 139.919 85.2455C139.919 84.476 139.919 83.7064 139.919 82.9135C128.854 82.6337 118.068 84.2195 107.33 86.7613C103.062 87.7408 98.7945 88.3121 94.4453 88.7435C96.7773 86.4115 96.7773 86.4116 101.966 84.8724C114.897 81.6543 127.793 78.5993 141.085 81.7475Z" fill="#6277B3"/>
<path d="M102.607 52.5977C102.992 52.9824 103.377 53.3672 103.773 53.7637C107.726 54.1368 111.69 54.3583 115.655 54.6032C116.739 54.7081 117.824 54.8131 118.931 54.9297C118.931 55.3144 118.931 55.6992 118.931 56.0957C115.888 56.1306 112.856 56.014 109.825 55.9091C108.554 56.0024 108.554 56.0024 107.271 56.0957C107.271 56.8652 107.271 57.6348 107.271 58.4277C110.186 58.7308 113.113 59.0223 116.04 59.1972C118.931 59.5937 118.931 59.5937 122.429 61.9257C121.03 61.879 119.643 61.8324 118.208 61.7857C113.544 61.914 110.385 62.5436 106.105 64.2577C107.458 64.4209 108.799 64.5958 110.186 64.7707C111.539 64.9806 112.88 65.2021 114.267 65.4237C114.267 65.8084 114.267 66.1932 114.267 66.5897C105.779 66.8695 105.779 66.8695 101.441 65.4237C101.441 64.6541 101.441 63.8845 101.441 63.0917C100.672 62.7069 99.9022 62.3221 99.1093 61.9257C100.648 61.9257 102.188 61.9257 103.773 61.9257C103.389 61.1561 103.004 60.3865 102.607 59.5937C101.255 59.0107 99.9138 58.4393 98.5263 57.8447C97.1737 57.2617 95.8328 56.6903 94.4453 56.0957C94.0605 55.3261 93.6757 54.5565 93.2793 53.7637C96.7773 52.5977 96.7773 52.5977 102.607 52.5977Z" fill="#9FB7F3"/>
<path d="M60.7835 104.845C62.0661 104.834 63.3371 104.81 64.6547 104.799C65.6341 104.88 66.6252 104.974 67.6396 105.067C67.6396 105.837 67.6396 106.606 67.6396 107.399C65.9722 107.294 64.3165 107.201 62.6025 107.108C60.8069 107.586 58.9996 108.064 57.134 108.565C55.5365 112.821 54.8719 116.844 54.2656 121.356C54.0557 122.522 53.8575 123.688 53.636 124.889C52.8664 124.889 52.0968 124.889 51.304 124.889C51.5022 126.043 51.7004 127.198 51.887 128.387C52.0852 129.541 52.2834 130.696 52.47 131.885C51.7004 131.885 50.9308 131.885 50.138 131.885C49.9397 128.224 49.8698 124.679 49.9281 121.03C49.9281 119.992 49.9281 118.966 49.9281 117.916C49.9514 113.765 49.9864 110.197 51.304 106.233C54.5221 104.624 57.2039 104.869 60.7835 104.845Z" fill="#37533C"/>
<path d="M60.6308 38.6055C66.7057 41.6371 70.6234 46.4177 74.9376 51.5131C76.7916 53.8567 76.7916 53.8567 79.2868 54.9295C79.2868 55.699 79.2868 56.4686 79.2868 57.2615C80.8259 58.031 82.3651 58.8006 83.9508 59.5935C85.5133 60.5846 87.0757 61.564 88.6848 62.5784C94.5264 66.193 98.3976 66.811 105.16 67.2424C107.387 67.394 107.387 67.394 109.649 67.5456C110.792 67.6155 111.923 67.6855 113.101 67.7555C109.603 70.0875 109.603 70.0875 106.863 70.5189C101.184 70.6588 96.3337 70.3556 91.0984 68.047C82.0386 62.9982 73.795 55.1627 67.4286 47.0356C65.3298 44.1206 65.3298 44.1206 61.3654 42.4649C60.351 41.9635 59.3366 41.4622 58.2988 40.9375C59.0684 40.1679 59.8379 39.3983 60.6308 38.6055Z" fill="#5B72B0"/>
<path d="M92.1132 85.2461C95.0282 86.4121 95.0282 86.4121 97.9432 87.5781C99.5639 87.7996 99.5639 87.7996 101.22 88.0212C102.059 88.2544 102.91 88.4992 103.773 88.7441C103.773 90.2832 103.773 91.8223 103.773 93.4081C100.147 94.0377 96.9287 94.3292 93.2792 94.4342C92.2764 94.4808 91.2736 94.5391 90.2476 94.5974C87.764 94.6907 85.2687 94.6441 82.7852 94.5741C82.7852 93.8045 82.7852 93.035 82.7852 92.2421C84.3243 91.4725 85.8634 90.703 87.4492 89.9101C86.6796 89.1405 85.91 88.371 85.1172 87.5781C86.8545 87.3216 86.8545 87.3216 88.6152 87.0651C89.7695 86.8552 90.9238 86.6336 92.1132 86.4121C92.1132 86.0273 92.1132 85.6425 92.1132 85.2461Z" fill="#708BCE"/>
<path d="M57.1322 107.399C61.8661 107.177 61.8661 107.177 66.4602 107.399C66.4602 108.168 66.4602 108.938 66.4602 109.731C65.4691 109.824 64.4896 109.929 63.4752 110.022C62.0644 110.453 62.0644 110.453 60.6302 110.897C60.7818 114.441 61.3764 117.053 62.9622 120.225C62.5774 120.994 62.1926 121.764 61.7962 122.557C60.2571 122.557 58.7179 122.557 57.1322 122.557C56.7474 124.096 56.3626 125.635 55.9662 127.221C55.1966 127.221 54.4271 127.221 53.6342 127.221C53.0745 120.703 54.3454 114.861 55.9662 108.565C56.351 108.18 56.7357 107.795 57.1322 107.399Z" fill="#345637"/>
<path d="M86.2832 44.4355C90.2942 45.5316 90.2942 45.5316 93.0926 46.6043C97.9548 48.3533 102.934 49.6592 107.924 51.0001C111.212 51.8746 114.5 52.7841 117.765 53.7635C117.765 54.1483 117.765 54.5331 117.765 54.9295C115.457 55.0461 113.148 55.0811 110.839 55.0811C108.915 55.0811 108.915 55.0811 106.945 55.0811C105.895 55.0345 104.858 54.9878 103.773 54.9295C103.388 54.5448 103.004 54.16 102.607 53.7635C101.523 53.7869 100.438 53.8102 99.3307 53.8335C95.6112 53.7635 95.6112 53.7635 90.9472 51.4315C89.3264 50.9302 89.3264 50.9302 87.6707 50.4171C86.8312 49.974 85.98 49.5426 85.1172 49.0995C85.502 47.5604 85.8867 46.0213 86.2832 44.4355Z" fill="#9AACDC"/>
<path d="M66.4603 95.7398C66.4603 96.1246 66.4603 96.5094 66.4603 96.9058C62.6242 97.1507 58.7997 97.279 54.9636 97.4072C53.7509 97.6288 52.55 97.8386 51.3023 98.0718C50.148 99.611 48.9937 101.15 47.8043 102.736C47.0348 102.351 46.2652 101.966 45.4723 101.57C46.2419 100.8 47.0115 100.031 47.8043 99.2378C44.4696 96.6377 44.4696 96.6377 40.5168 96.4744C35.3165 96.9875 32.4015 98.8647 27.9823 101.57C24.5543 102.444 24.5543 102.444 22.1523 102.736C25.3938 99.2612 28.4021 96.7309 32.6463 94.5738C43.8866 92.58 55.3484 93.2446 66.4603 95.7398Z" fill="#2D3D39"/>
<path d="M0 12.9531C1.9239 12.9531 3.8478 12.9531 5.83 12.9531C8.81496 14.947 8.81496 14.947 11.66 17.5472C12.6161 18.3983 13.5839 19.2495 14.575 20.124C15.1463 20.8353 15.7293 21.5465 16.324 22.2811C15.1697 22.6659 14.0153 23.0507 12.826 23.4471C11.3102 24.788 11.3102 24.788 10.494 28.1111C6.50628 24.6598 3.05492 20.742 0 16.4511C0 15.2968 0 14.1424 0 12.9531Z" fill="#7187C2"/>
<path d="M60.6307 77.084C61.4003 77.084 62.1698 77.084 62.9627 77.084C64.187 81.9695 64.292 86.0622 64.1287 91.076C63.7439 91.8455 63.3592 92.6151 62.9627 93.408C57.6458 93.1165 57.6458 93.1165 52.4687 92.242C52.4687 91.4724 52.4687 90.7029 52.4687 89.91C51.6992 89.5252 50.9296 89.1404 50.1367 88.744C52.049 87.5197 53.9845 86.3537 55.9667 85.246C56.3515 85.6308 56.7363 86.0155 57.1327 86.412C59.523 84.2665 59.523 84.2665 60.6307 81.748C60.6307 80.2089 60.6307 78.6697 60.6307 77.084Z" fill="#728DD2"/>
<path d="M9.32617 1.29255C17.15 0.791173 22.9684 1.68899 30.3142 4.79055C33.8005 6.91267 36.5639 9.05811 39.6422 11.7866C38.8726 12.5561 38.1031 13.3257 37.3102 14.1186C37.3102 13.349 37.3102 12.5794 37.3102 11.7866C36.1558 11.7866 35.0015 11.7866 33.8122 11.7866C33.8122 12.5561 33.8122 13.3257 33.8122 14.1186C30.3142 14.5616 30.3142 14.5616 26.8162 14.1186C26.8162 12.5794 26.8162 11.0403 26.8162 9.45455C27.5857 9.45455 28.3553 9.45455 29.1482 9.45455C28.7634 7.91543 28.3786 6.37631 27.9822 4.79055C25.2654 4.67395 22.537 4.70893 19.8202 4.79055C16.2406 4.21921 12.8475 3.37969 9.32617 2.45855C9.32617 2.07377 9.32617 1.68899 9.32617 1.29255Z" fill="#7085C0"/>
<path d="M149.246 88.7438C152.208 88.2075 152.208 88.2075 156.312 88.3007C157.653 88.3241 158.982 88.3357 160.37 88.3474C164.404 88.7438 167.669 89.4784 171.4 91.0758C171.4 91.8454 171.4 92.6149 171.4 93.4078C164.148 94.6788 157.641 94.877 150.412 93.4078C150.027 91.8687 149.643 90.3296 149.246 88.7438Z" fill="#728CD9"/>
<path d="M144.584 60.7598C145.353 61.1445 146.123 61.5293 146.916 61.9258C146.484 65.4937 146.484 65.4937 145.75 68.9218C145.365 67.7674 144.98 66.6131 144.584 65.4238C140.339 65.2139 140.339 65.2139 135.326 65.7153C133.542 65.8552 131.746 65.9834 129.904 66.135C124.295 66.6364 118.698 67.1378 113.102 67.7558C115.434 65.4238 115.434 65.4238 119.654 64.1178C126.674 62.6137 133.74 63.0335 140.876 63.2433C142.1 63.185 143.324 63.1384 144.584 63.0918C144.584 62.3222 144.584 61.5526 144.584 60.7598Z" fill="#6476AE"/>
<path d="M134.089 56.0959C134.089 56.4807 134.089 56.8655 134.089 57.2619C131.058 57.6 128.026 57.7866 124.983 57.9848C124.144 58.1364 123.292 58.2763 122.429 58.4279C122.429 59.1975 122.429 59.967 122.429 60.7599C119.118 60.5617 119.118 60.5617 114.85 59.8854C112.74 59.5706 112.74 59.5706 110.583 59.2441C109.499 58.9759 108.403 58.7077 107.271 58.4279C107.271 57.6583 107.271 56.8888 107.271 56.0959C116.261 54.6151 125.065 54.825 134.089 56.0959Z" fill="#98ADE3"/>
<path d="M48.9707 23.4473C50.125 24.0186 50.125 24.0186 51.3027 24.6133C52.2005 27.4816 52.9817 30.3733 53.7047 33.2883C55.0106 39.0017 55.0106 39.0017 57.1327 44.4353C56.8529 47.5601 56.4681 50.6734 55.9667 53.7633C55.5819 53.7633 55.1971 53.7633 54.8007 53.7633C54.4392 52.2008 54.0778 50.6384 53.7047 49.0293C53.2966 47.5135 52.8885 45.9977 52.4687 44.4353C51.6991 44.82 50.9296 45.2048 50.1367 45.6013C50.1017 43.1527 50.0784 40.7041 50.1367 38.2555C50.1367 33.2766 49.5304 28.4028 48.9707 23.4473Z" fill="#6174AB"/>
<path d="M48.9702 112.062C49.3549 112.062 49.7397 112.062 50.1362 112.062C50.2178 115.362 50.2294 118.674 50.2061 121.974C50.1945 123.816 50.1828 125.658 50.1828 127.547C50.1595 128.981 50.1478 130.415 50.1362 131.885C51.4887 128.445 51.4887 128.445 51.3022 124.889C52.0717 124.889 52.8413 124.889 53.6342 124.889C53.6342 125.658 53.6342 126.428 53.6342 127.221C54.7885 127.221 55.9428 127.221 57.1322 127.221C57.5169 126.066 57.9017 124.912 58.2982 123.723C59.0677 123.723 59.8373 123.723 60.6302 123.723C59.4642 128.387 59.4642 128.387 57.4237 131.01C56.5608 131.686 55.6863 132.363 54.8002 133.051C52.8763 133.051 50.9524 133.051 48.9702 133.051C48.4804 129.343 48.3755 126.253 48.5271 122.557C48.5504 121.554 48.5621 120.551 48.5854 119.525C48.6437 117.03 48.7953 114.546 48.9702 112.062Z" fill="#314833"/>
<path d="M75.7893 112.062C76.1741 113.217 76.5589 114.371 76.9553 115.561C78.1097 115.945 79.264 116.33 80.4533 116.727C80.7915 120.668 80.7915 120.668 80.6749 125.541C80.6282 127.967 80.6282 127.967 80.5816 130.427C80.535 131.686 80.5 132.934 80.4533 134.217C78.1447 132.444 78.1447 132.444 75.7893 129.553C75.3346 125.273 75.3346 125.273 75.4978 120.516C75.5445 118.93 75.5795 117.356 75.6261 115.724C75.6844 114.511 75.731 113.31 75.7893 112.062Z" fill="#364C39"/>
<path d="M61.7969 38.6054C70.1221 37.8358 77.3513 40.6575 85.1169 43.2694C80.4529 45.6014 80.4529 45.6014 77.398 45.7763C74.0399 45.5197 70.9033 45.2049 67.6269 44.4354C63.9073 41.4504 63.9073 41.4504 61.7969 38.6054Z" fill="#98A7D4"/>
<path d="M73.457 102.734C74.9961 103.504 76.5352 104.273 78.121 105.066C78.599 107.771 78.9955 110.5 79.287 113.228C80.0565 113.998 80.8261 114.767 81.619 115.56C81.619 117.484 81.619 119.408 81.619 121.39C80.8494 119.851 80.0798 118.312 79.287 116.726C78.1326 116.726 76.9783 116.726 75.789 116.726C73.457 112.062 73.457 112.062 73.457 108.564C72.6874 108.564 71.9178 108.564 71.125 108.564C70.7402 109.334 70.3554 110.103 69.959 110.896C69.1544 107.981 69.1544 107.981 68.793 105.066C69.9473 105.066 71.1016 105.066 72.291 105.066C72.291 105.836 72.291 106.605 72.291 107.398C73.4453 107.398 74.5996 107.398 75.789 107.398C75.789 106.629 75.789 105.859 75.789 105.066C75.0194 105.066 74.2498 105.066 73.457 105.066C73.457 104.297 73.457 103.527 73.457 102.734Z" fill="#2E4A32"/>
<path d="M17.4883 21.1152C20.893 25.651 23.3649 30.0585 25.9418 35.1072C26.7929 36.7396 27.6325 38.372 28.507 40.0627C29.1016 41.5086 29.6963 42.9544 30.3143 44.4352C29.9295 45.9744 29.5447 47.5135 29.1483 49.0992C28.3787 49.8688 27.6091 50.6384 26.8163 51.4312C26.4315 50.2769 26.0467 49.1226 25.6503 47.9332C24.8807 47.9332 24.1111 47.9332 23.3183 47.9332C23.703 47.1637 24.0878 46.3941 24.4843 45.6012C25.2538 45.986 26.0234 46.3708 26.8163 46.7672C24.6825 39.7129 21.3361 33.4982 17.908 27.0035C17.3833 25.8259 16.8586 24.6599 16.3223 23.4472C16.707 22.6777 17.0918 21.9081 17.4883 21.1152Z" fill="#556CA9"/>
<path d="M123.595 98.0723C124.365 99.2266 125.135 100.381 125.927 101.57C123.281 101.629 120.634 101.675 117.987 101.722C115.772 101.757 115.772 101.757 113.521 101.803C112.227 101.722 110.933 101.652 109.603 101.57C108.449 100.801 107.295 100.031 106.105 99.2383C112.262 96.5565 117.043 96.8246 123.595 98.0723Z" fill="#54638F"/>
<path d="M102.607 100.403C99.1092 102.735 99.1092 102.735 94.4452 103.901C94.0604 105.055 93.6756 106.209 93.2792 107.399C89.1282 107.259 89.1282 107.259 85.1172 106.233C85.1172 105.078 85.1172 103.924 85.1172 102.735C91.0405 100.764 96.3807 100.146 102.607 100.403Z" fill="#758DD9"/>
<path d="M169.068 99.2382C173.009 98.9467 173.009 98.9467 177.23 99.2382C178 100.392 178.769 101.547 179.562 102.736C180.717 103.121 181.871 103.506 183.06 103.902C183.445 102.748 183.83 101.593 184.226 100.404C184.611 100.789 184.996 101.174 185.392 101.57C185.392 103.494 185.392 105.418 185.392 107.4C179.562 107.4 179.562 107.4 176.694 105.908C175.796 105.266 174.887 104.637 173.954 103.972C173.033 103.342 172.112 102.701 171.155 102.048C170.468 101.5 169.78 100.964 169.068 100.404C169.068 100.019 169.068 99.6346 169.068 99.2382Z" fill="#6A7CB1"/>
<path d="M3.49609 2.45898C7.93855 3.26352 7.93855 3.26352 12.8241 4.79098C15.7041 8.32396 16.3687 10.8192 17.4881 15.285C16.7185 16.0545 15.949 16.8241 15.1561 17.617C13.2672 15.4132 13.2672 15.4132 11.1451 12.1484C8.74309 8.47554 6.63263 5.59552 3.49609 2.45898Z" fill="#6D81BC"/>
<path d="M131.758 87.5781C136.865 87.7297 136.865 87.7297 142.252 88.7441C143.406 89.8985 144.56 91.0528 145.75 92.2421C142.228 94.0028 139.15 93.6063 135.256 93.4081C133.717 92.6386 132.178 91.869 130.592 91.0761C130.977 89.9218 131.361 88.7674 131.758 87.5781Z" fill="#748BD8"/>
<path d="M53.6344 61.9258C55.943 62.4971 55.943 62.4971 58.2984 63.0918C59.3361 66.9629 59.2661 70.7291 59.4644 74.7518C58.6948 73.9822 57.9252 73.2127 57.1324 72.4198C55.5932 72.035 54.0541 71.6502 52.4684 71.2538C52.1069 67.1728 52.1069 67.1728 52.4684 63.0918C52.8531 62.707 53.2379 62.3222 53.6344 61.9258Z" fill="#768DD6"/>
<path d="M176.064 93.4082C176.834 93.4082 177.604 93.4082 178.396 93.4082C180.88 95.3787 180.88 95.3787 183.06 98.0722C183.06 99.9961 183.06 101.92 183.06 103.902C181.521 103.517 179.982 103.133 178.396 102.736C178.012 101.582 177.627 100.428 177.23 99.2382C176.076 98.8534 174.922 98.4686 173.732 98.0722C174.502 98.0722 175.272 98.0722 176.064 98.0722C176.064 96.5331 176.064 94.994 176.064 93.4082Z" fill="#6E86C7"/>
<path d="M15.1562 52.5977C18.8058 52.8192 18.8058 52.8192 23.3183 53.7637C27.6208 56.6087 27.6208 56.6087 30.3143 59.5937C28.0056 60.748 28.0056 60.748 25.6503 61.9257C21.7325 59.1273 18.5493 55.9907 15.1562 52.5977Z" fill="#6B78A7"/>
<path d="M39.6426 12.9531C42.4177 15.2268 45.1344 17.5588 47.8046 19.9491C48.1894 21.1035 48.5741 22.2578 48.9706 23.4471C47.8162 23.8319 46.6619 24.2167 45.4726 24.6131C44.703 24.2283 43.9335 23.8436 43.1406 23.4471C43.1406 22.6776 43.1406 21.908 43.1406 21.1151C42.371 21.1151 41.6015 21.1151 40.8086 21.1151C40.3305 18.41 39.9341 15.6816 39.6426 12.9531Z" fill="#7184C0"/>
<path d="M122.429 82.9141C122.429 84.4532 122.429 85.9923 122.429 87.5781C115.981 88.8723 110.21 88.9423 103.773 87.5781C103.773 87.1933 103.773 86.8085 103.773 86.4121C106.432 85.7474 109.102 85.1528 111.784 84.5931C113.276 84.2783 114.769 83.9635 116.296 83.637C120.097 82.9141 120.097 82.9141 122.429 82.9141Z" fill="#708ACE"/>
<path d="M0 12.9531C1.9239 12.9531 3.8478 12.9531 5.83 12.9531C9.25804 15.7982 9.25804 15.7982 11.66 18.7831C10.5057 19.3661 10.5057 19.3661 9.328 19.9491C9.328 19.1796 9.328 18.41 9.328 17.6171C5.74838 18.5266 5.74838 18.5266 3.498 21.1151C2.34366 19.576 1.18932 18.0369 0 16.4511C0 15.2968 0 14.1424 0 12.9531Z" fill="#697AB0"/>
<path d="M69.959 89.9102C71.8829 89.9102 73.8068 89.9102 75.789 89.9102C76.6751 92.9884 77.4447 96.1016 78.121 99.2382C79.2753 99.6229 80.4297 100.008 81.619 100.404C80.8494 101.174 80.0799 101.943 79.287 102.736C76.372 100.626 76.372 100.626 73.457 98.0722C72.6874 97.6874 71.9179 97.3026 71.125 96.9062C71.5098 95.7518 71.8945 94.5975 72.291 93.4082C73.0605 93.4082 73.8301 93.4082 74.623 93.4082C74.623 92.6386 74.623 91.869 74.623 91.0762C73.4686 91.0762 72.3143 91.0762 71.125 91.0762C70.7402 91.8457 70.3554 92.6153 69.959 93.4082C69.959 92.2538 69.959 91.0995 69.959 89.9102Z" fill="#6D87C3"/>
<path d="M36.1445 64.2578C36.9141 65.7969 37.6836 67.3361 38.4765 68.9218C39.2461 68.9218 40.0156 68.9218 40.8085 68.9218C42.0212 71.6153 43.1872 74.3437 44.3065 77.0838C44.9595 78.1682 45.6008 79.2526 46.2771 80.3603C46.7784 81.1998 47.2798 82.051 47.8045 82.9138C47.8045 83.6834 47.8045 84.4529 47.8045 85.2458C47.035 85.2458 46.2654 85.2458 45.4725 85.2458C43.8051 82.634 42.2427 79.9405 40.7386 77.2354C39.899 75.7429 39.0712 74.2504 38.22 72.723C37.1123 70.6941 36.0163 68.6536 34.9785 66.5898C35.3633 65.8203 35.7481 65.0507 36.1445 64.2578Z" fill="#5069A5"/>
<path d="M57.1327 98.0723C58.6718 98.0723 60.2109 98.0723 61.7967 98.0723C61.9366 99.4481 61.9366 99.4481 62.0882 100.847C61.6101 101.85 61.1204 102.865 60.6307 103.902C57.5408 104.765 54.4392 105.546 51.3027 106.234C50.9179 107.389 50.5331 108.543 50.1367 109.732C49.7519 108.578 49.3671 107.424 48.9707 106.234C51.6525 104.24 54.3693 102.293 57.1327 100.404C57.1327 99.6347 57.1327 98.8651 57.1327 98.0723Z" fill="#2C4C2E"/>
<path d="M73.4568 96.9055C73.4568 97.2903 73.4568 97.6751 73.4568 98.0715C72.3257 98.2348 71.1947 98.4097 70.0287 98.5846C68.268 98.9111 68.2681 98.9111 66.4608 99.2375C66.076 100.007 65.6912 100.777 65.2948 101.57C64.5252 101.57 63.7556 101.57 62.9628 101.57C62.578 100.8 62.1932 100.03 61.7968 99.2375C60.4559 99.2375 59.1033 99.2375 57.7158 99.2375C56.3749 99.2375 55.0223 99.2375 53.6348 99.2375C53.25 98.468 52.8652 97.6984 52.4688 96.9055C59.2549 95.588 66.7523 95.0399 73.4568 96.9055Z" fill="#3B564B"/>
<path d="M45.4727 88.7441C48.9707 89.1872 48.9707 89.1872 52.4687 89.9101C52.4687 90.6797 52.4687 91.4493 52.4687 92.2421C55.9667 92.6502 59.4647 93.035 62.9627 93.4081C64.117 94.1777 65.2713 94.9473 66.4607 95.7401C61.3419 95.6585 56.3514 95.437 51.3027 94.5741C47.4432 91.5892 47.4432 91.5892 45.4727 88.7441Z" fill="#6E84BA"/>
<path d="M137.518 56.9707C138.696 57.064 139.873 57.1689 141.086 57.2622C142.24 58.4165 143.394 59.5709 144.584 60.7602C142.252 61.9262 142.252 61.9262 138.835 62.2177C137.646 62.1244 136.468 62.0195 135.256 61.9262C134.101 60.7719 132.947 59.6175 131.758 58.4282C134.09 57.2622 134.09 57.2622 137.518 56.9707Z" fill="#97ACDE"/>
<path d="M66.4609 98.0718C70.8334 97.4188 70.8334 97.4188 75.7889 98.0718C79.3569 100.847 79.3569 100.847 81.6189 103.902C81.2341 104.671 80.8494 105.441 80.4529 106.234C79.8233 105.511 79.2053 104.788 78.564 104.053C77.1881 102.817 77.1881 102.817 75.7889 101.57C71.6146 101.08 71.6146 101.08 67.6269 101.57C66.4726 102.153 66.4726 102.153 65.2949 102.736C65.6797 101.197 66.0645 99.6575 66.4609 98.0718Z" fill="#2E4C43"/>
<path d="M143.418 92.2422C146.554 92.6036 146.554 92.6036 149.248 93.4082C148.863 94.1777 148.478 94.9473 148.082 95.7402C144.327 95.9384 140.689 96.0084 136.935 95.9617C135.885 95.9617 134.824 95.9617 133.752 95.9617C131.14 95.9384 128.528 95.8451 125.928 95.7402C125.928 95.3554 125.928 94.9706 125.928 94.5742C128.4 94.3177 130.883 94.1428 133.355 93.9912C138.579 93.8279 138.579 93.8279 143.418 92.2422Z" fill="#798CC6"/>
<path d="M86.2832 44.4355C91.6001 45.893 91.6001 45.893 96.7772 47.9335C95.2381 49.0879 93.6989 50.2422 92.1132 51.4315C88.2537 50.7786 88.2537 50.7786 85.1172 49.0995C85.502 47.5604 85.8867 46.0213 86.2832 44.4355Z" fill="#93A6D4"/>
<path d="M38.4766 79.416C39.6309 79.416 40.7852 79.416 41.9746 79.416C41.9746 80.1856 41.9746 80.9551 41.9746 81.748C43.1289 82.1328 44.2832 82.5176 45.4726 82.914C45.4726 83.6836 45.4726 84.4531 45.4726 85.246C46.6269 84.8612 47.7812 84.4765 48.9706 84.08C48.9706 84.8496 48.9706 85.6191 48.9706 86.412C46.6619 87.5664 46.6619 87.5664 44.3066 88.744C41.1001 85.5375 41.1001 85.5375 38.4766 81.748C38.4766 80.9785 38.4766 80.2089 38.4766 79.416Z" fill="#6F7FBF"/>
<path d="M26.8164 60.7598C28.3555 61.1445 29.8946 61.5293 31.4804 61.9258C32.6347 63.4649 33.7891 65.004 34.9784 66.5898C34.6169 69.7963 34.6169 69.7963 33.8124 72.4198C30.7342 69.3415 28.8452 66.8696 26.8164 63.0918C26.8164 62.3222 26.8164 61.5526 26.8164 60.7598Z" fill="#737FBC"/>
<path d="M149.246 88.7438C152.488 88.2075 152.488 88.2075 156.825 88.3007C158.259 88.3241 159.682 88.3357 161.163 88.3474C162.235 88.4756 163.296 88.6156 164.404 88.7438C164.019 89.5134 163.635 90.2829 163.238 91.0758C160.906 91.0758 158.574 91.0758 156.242 91.0758C156.627 91.8454 157.012 92.6149 157.408 93.4078C154.062 93.8509 154.062 93.8509 150.412 93.4078C150.027 91.8687 149.643 90.3296 149.246 88.7438Z" fill="#758DD2"/>
<path d="M92.1132 85.2461C93.6523 86.0157 95.1914 86.7852 96.7772 87.5781C96.0076 87.5781 95.2381 87.5781 94.4452 87.5781C94.4452 88.3477 94.4452 89.1172 94.4452 89.9101C92.1365 91.0644 92.1365 91.0644 89.7812 92.2421C88.6268 91.8573 87.4725 91.4725 86.2832 91.0761C86.668 90.6913 87.0527 90.3065 87.4492 89.9101C86.6796 89.1405 85.9101 88.371 85.1172 87.5781C86.8545 87.3216 86.8545 87.3216 88.6152 87.0651C89.7695 86.8552 90.9239 86.6336 92.1132 86.4121C92.1132 86.0273 92.1132 85.6425 92.1132 85.2461Z" fill="#6780C4"/>
<path d="M60.6308 38.6055C66.146 41.5438 69.6673 45.3566 73.4568 50.2655C72.3025 50.2655 71.1481 50.2655 69.9588 50.2655C68.9094 48.9362 68.9094 48.9362 67.8484 47.572C65.4347 44.1673 65.4347 44.1673 61.3654 42.4649C60.351 41.9635 59.3366 41.4622 58.2988 40.9375C59.0684 40.1679 59.8379 39.3983 60.6308 38.6055Z" fill="#6375B1"/>
<path d="M109.603 100.404C105.103 103.413 100.637 105.348 95.6113 107.4C94.8417 107.016 94.0722 106.631 93.2793 106.234C96.7773 102.736 96.7773 102.736 100.124 101.349C103.773 100.404 103.773 100.404 109.603 100.404Z" fill="#7182BD"/>
<path d="M83.9511 99.2383C87.6707 99.3899 87.6707 99.3899 90.9471 100.404C90.9471 101.174 90.9471 101.943 90.9471 102.736C89.0232 102.736 87.0993 102.736 85.1171 102.736C85.1171 103.891 85.1171 105.045 85.1171 106.234C83.578 105.465 82.0389 104.695 80.4531 103.902C81.6075 102.363 82.7618 100.824 83.9511 99.2383Z" fill="#708CCA"/>
<path d="M53.6344 46.7676C54.7888 48.3067 55.9431 49.8458 57.1324 51.4316C57.1324 52.2011 57.1324 52.9707 57.1324 53.7636C58.2868 54.1484 59.4411 54.5331 60.6304 54.9296C60.269 57.9145 60.269 57.9145 59.4644 60.7596C58.3101 59.2205 57.1557 57.6813 55.9664 56.0956C55.1969 56.0956 54.4273 56.0956 53.6344 56.0956C53.5411 52.9824 53.5411 49.8808 53.6344 46.7676Z" fill="#6981C3"/>
</svg>
